<svg xmlns="http://www.w3.org/2000/svg" viewBox="0 0 255.25 165.25">
	
	<defs>
		<style>.cls-1,.cls-11,.cls-2,.cls-3,.cls-7,.cls-9{fill:none;}.cls-1,.cls-10,.cls-11,.cls-2,.cls-3,.cls-5,.cls-6,.cls-7,.cls-8,.cls-9{stroke:#000;stroke-miterlimit:10;}.cls-1,.cls-2,.cls-3{stroke-width:0.25px;}.cls-2{stroke-dasharray:11.57 11.57;}.cls-3{stroke-dasharray:11.77 11.77;}.cls-4{fill:#e6e6e6;}.cls-5,.cls-8{fill:#d1d1e5;}.cls-6{fill:#999;}.cls-10,.cls-6,.cls-7,.cls-8,.cls-9{stroke-width:0.5px;}.cls-11,.cls-9{stroke-linecap:round;}.cls-10{fill:#ccc;}.cls-11{stroke-width:0.75px;stroke-dasharray:0 5.63;}
		</style>
	</defs>
	<title>All_mechanic_icons</title>


	<g id="Gauge">
		<polygon id="BackgroundPolly" class="cls-4" points="241.86 99.16 215.67 87.86 189.17 98.4 177.88 124.59 188.41 151.09 214.6 162.38 241.1 151.85 252.4 125.66 241.86 99.16"/>
		<path id="inner" class="cls-5" d="M224.2,158.11c-3.49-2.89-5-7.73-5-12.61a18.33,18.33,0,0,1,36.66,0c0,4.88-1.51,9.74-5,12.59" transform="translate(-22.37 -17.38)"/>
		<path id="needle" class="cls-6" d="M241.34,163.64l-3.84.34-3.84-.34.91-3.87h5.86ZM237.5,144.1c-.32,0-9.38-9.71-9.59-9.5s8.43,10.34,8.43,10.66a1.16,1.16,0,1,0,1.16-1.16Z" transform="translate(-22.37 -17.38)"/>
		<path id="gauge-2" data-name="gauge" class="cls-7" d="M259,142.5A21.48,21.48,0,1,1,237.5,121,21.48,21.48,0,0,1,259,142.5ZM237.5,127.17v3.28m-10.07,0,2.72,2.72M248,130.45l-3.08,3.07M222.46,135l2.54,2.54m27.72-2.27-3.12,3.12m-30.35,5.48H223m32.83,0h-5.77" transform="translate(-22.37 -17.38)"/>
	</g>

	<g id="Engine">
		<polygon id="BackgroundPolly-2" data-name="BackgroundPolly" class="cls-4" points="154.36 99.16 128.17 87.86 101.67 98.4 90.38 124.59 100.91 151.09 127.1 162.38 153.6 151.85 164.9 125.66 154.36 99.16"/>
		<path id="engine-2" data-name="engine" class="cls-8" d="M163.25,156.91H145.77a1.24,1.24,0,0,1-.84-.32l-5.48-4.94-5.46,0a1.29,1.29,0,0,1-.89-.37,1.22,1.22,0,0,1-.37-.88V144.8l-1.64.06v6.37a1.25,1.25,0,0,1-2.5,0v-7.57a1.23,1.23,0,0,1,.65-1.09,1.26,1.26,0,0,1-.65-1.1V133.8a1.25,1.25,0,0,1,2.5,0v6.46l1.64.05v-5.58a1.25,1.25,0,0,1,1.25-1.25h5.17v-1.69a1.25,1.25,0,0,1,1.23-1.25l7.31-.15v-1.61h-6.31a1.25,1.25,0,0,1,0-2.5h7.56l.18,0,.18,0h7a1.25,1.25,0,0,1,0,2.5h-5.75l0,1.69,7,.07a1.25,1.25,0,0,1,1.24,1.25v3.06l4.37,0a1.24,1.24,0,0,1,1.24,1.25v4.59H166l-.05-2a1.25,1.25,0,0,1,1.25-1.29h4.84a1.25,1.25,0,0,1,1.25,1.25v14.08a1.26,1.26,0,0,1-1.25,1.25h0l-4.88,0a1.26,1.26,0,0,1-1.24-1.22l-.06-2H164.5v4.88A1.25,1.25,0,0,1,163.25,156.91Zm-17-2.5H162v-4.88a1.25,1.25,0,0,1,1.25-1.25h3.83a1.25,1.25,0,0,1,1.25,1.22l.06,2,2.42,0V139.93H168.5l.06,2a1.26,1.26,0,0,1-1.25,1.28h-4.06A1.25,1.25,0,0,1,162,142v-4.6l-4.37,0a1.25,1.25,0,0,1-1.24-1.25V133l-7-.07a1.64,1.64,0,0,1-.44-.09l-7.28.15v1.71A1.25,1.25,0,0,1,140.4,136h-5.17v5.62a1.27,1.27,0,0,1-.38.9l-.06.05.06,0a1.27,1.27,0,0,1,.38.9v5.67l4.69,0h0a1.24,1.24,0,0,1,.84.32Z" transform="translate(-22.37 -17.38)"/>
	</g>

	<g id="Shift">
		<polygon id="BackgroundPolly-3" data-name="BackgroundPolly" class="cls-4" points="66.84 99.16 40.65 87.86 14.15 98.4 2.85 124.59 13.39 151.09 39.58 162.38 66.08 151.85 77.37 125.66 66.84 99.16"/>
		<path id="slots" class="cls-8" d="M63.41,144.34v6.85a1,1,0,0,1-.93,1.07h0a1,1,0,0,1-.94-1.07v-6.85a1,1,0,0,0-.93-1.07H49.77a1,1,0,0,0-.93,1.07v6.85a1,1,0,0,1-.93,1.07h0a1,1,0,0,1-.93-1.07V132.81a1,1,0,0,1,.93-1.07h0a1,1,0,0,1,.93,1.07v6.86a1,1,0,0,0,.93,1.07H60.6a1,1,0,0,0,.93-1.07v-6.86a1,1,0,0,1,.94-1.07h0a1,1,0,0,1,.93,1.07v6.86a1,1,0,0,0,.94,1.07H75.22a1,1,0,0,0,.94-1.07v-6.86a1,1,0,0,1,.93-1.07h0a1,1,0,0,1,.93,1.07v9.39a1,1,0,0,1-.93,1.07H64.35A1,1,0,0,0,63.41,144.34Zm12.75.82v6a1,1,0,0,0,.93,1.07h0a1,1,0,0,0,.93-1.07v-6a1,1,0,0,0-.93-1.07h0A1,1,0,0,0,76.16,145.16Z" transform="translate(-22.37 -17.38)"/>
		<path id="numbers" class="cls-6" d="M47.11,123c1.23,0,1.57.45,1.57,1.62v5.17H47.5v-5.09c0-.36-.13-.51-.49-.51h-.62V123ZM63,123c1.59,0,2.27.78,2.27,1.82a1.53,1.53,0,0,1-1,1.56,1.56,1.56,0,0,1,1,1.59c0,1-.67,1.82-2.26,1.82H59.6v-1.19H63c.69,0,1-.32,1-.86s-.35-.82-1-.82H60.93v-1.07H63c.69,0,1-.25,1-.82s-.31-.84-1-.84H59.61V123Zm16.39,0v1.19H75.46c-.09,0-.13,0-.13.12v1.24c0,.08,0,.12.13.12h2c1.83,0,2.29.9,2.29,2a1.93,1.93,0,0,1-2.17,2.13H74.18v-1.19h3.45a.85.85,0,0,0,1-1c0-.55-.25-.9-1-.9H74.71a.49.49,0,0,1-.56-.55v-2.63a.49.49,0,0,1,.56-.56ZM49,154.05a1.79,1.79,0,0,1,2,1.92,1.7,1.7,0,0,1-1.57,1.81l-2.83.64a.63.63,0,0,0-.56.74v.34c0,.11,0,.14.13.14h4.65v1.19h-5.4a.49.49,0,0,1-.56-.55v-1a1.67,1.67,0,0,1,1.48-1.95l2.86-.65c.48-.11.63-.34.63-.66a.73.73,0,0,0-.84-.76H45.13v-1.18Zm12.71.76a1.75,1.75,0,0,1,1.58-.76h.75a1.08,1.08,0,0,1,1.23,1.23v5.55h-1.2v-1.41H60.91c-1.15,0-1.57-.41-1.57-1.17a1.55,1.55,0,0,1,.42-1.1Zm-.93,2.91a.4.4,0,0,0-.13.31c0,.22.14.34.46.34h3v-2.81c0-.21-.09-.33-.3-.33h-.53a.68.68,0,0,0-.62.29Zm17.08-3.67a2,2,0,0,1,2.18,2,2,2,0,0,1-1.44,2l1.58,2.71H78.87l-1.55-2.62H75.55a.15.15,0,0,0-.17.17v2.45H74.2v-2.68c0-.77.32-1.08,1.06-1.08h2.65a.87.87,0,0,0,.94-.94.85.85,0,0,0-.94-.9H74.19v-1.18Z" transform="translate(-22.37 -17.38)"/>
	</g>

	<g id="Steering">
		<polygon id="BackgroundPolly-4" data-name="BackgroundPolly" class="cls-4" points="241.85 14.16 215.66 2.87 189.16 13.4 177.87 39.59 188.4 66.09 214.59 77.39 241.09 66.85 252.38 40.66 241.85 14.16"/>
		<path class="cls-6" d="M263,57.5A25.5,25.5,0,1,1,237.5,32,25.5,25.5,0,0,1,263,57.5Zm-6.48,2.85a1.83,1.83,0,0,1-1.83-1.83v-2a1.83,1.83,0,0,1,1.83-1.83h0a1.75,1.75,0,0,0,1.72-2.13,21.33,21.33,0,0,0-41.48,0,1.75,1.75,0,0,0,1.72,2.13h0a1.83,1.83,0,0,1,1.83,1.83v2a1.83,1.83,0,0,1-1.83,1.83h0a1.76,1.76,0,0,0-1.73,2.13,21.38,21.38,0,0,0,15.53,15.71l1.08-.87h0a1.84,1.84,0,0,1,1.83-1.83h4.62a1.84,1.84,0,0,1,1.83,1.83h0l1.08.87a21.37,21.37,0,0,0,15.55-15.7,1.76,1.76,0,0,0-1.7-2.14Z" transform="translate(-22.37 -17.38)"/>
		<path class="cls-8" d="M242.47,56.08l11.95-.2a1.72,1.72,0,0,1-.42,3.41l-10.06,1-.34,0a6,6,0,0,1-3.56,5.4l0,.41-.52,9.7a2,2,0,0,1-4,0L235,66l0-.43a6,6,0,0,1-3.37-5.34l-.34,0-10.42-1.21a1.63,1.63,0,0,1-.36-3.24l12.32.19.58-.09a6,6,0,0,1,8.5,0Zm-4.87,2.29a1.79,1.79,0,1,0,1.78,1.79A1.79,1.79,0,0,0,237.6,58.37Z" transform="translate(-22.37 -17.38)"/>
		<path class="cls-9" d="M216.79,62.71a22.19,22.19,0,0,1-.55-3.39" transform="translate(-22.37 -17.38)"/>
		<path class="cls-9" d="M238.49,78.84l-1,0" transform="translate(-22.37 -17.38)"/>
		<path class="cls-9" d="M243.76,77.92a22,22,0,0,1-4.17.84" transform="translate(-22.37 -17.38)"/>
		<path class="cls-9" d="M257.49,50a21.49,21.49,0,0,1,1.38,7.6" transform="translate(-22.37 -17.38)"/>
		<path class="cls-9" d="M216.24,58.46v-.17" transform="translate(-22.37 -17.38)"/>
	</g>

	<g id="WrenchGear">
		<polygon id="BackgroundPolly-5" data-name="BackgroundPolly" class="cls-4" points="154.35 14.16 128.16 2.87 101.66 13.4 90.36 39.59 100.9 66.09 127.09 77.39 153.59 66.85 164.88 40.66 154.35 14.16"/>
		<path id="gear" class="cls-10" d="M143.6,77.67l-1-5.09-5-3.66-5.14.57-2.18-4.13,3.37-3.93-.23-6.15-3.65-3.67,1.87-4.28,5.17.19,4.67-4,.59-5.14,4.51-1.21,3.08,4.16,6.05,1.15,4.39-2.74,3.76,2.77-1.33,5,2.87,5.45,4.89,1.72.17,4.66-4.74,2.08-2.47,5.65,1.7,4.89-3.54,3-4.58-2.41-6,1.59-2.77,4.38Zm19.17-24-3.63-5.87-6.09-3.27-6.9.22-5.87,3.63L137,54.45l.22,6.9,3.63,5.87L147,70.49l6.9-.22,5.87-3.63L163,60.55Zm-9.08,2.74-1.05-1.7-1.76-.94-2,.06-1.7,1-.94,1.76.06,2,1.05,1.7,1.76.94,2-.06,1.7-1,.94-1.76Z" transform="translate(-22.37 -17.38)"/>
		<path id="wrench" class="cls-8" d="M143.57,68a4.37,4.37,0,0,1-3.5,2.49,4.31,4.31,0,0,0-1.65.59h0a6.67,6.67,0,0,0-3,7l.45,2.18.59.26,1.88-4.29,3.77-.44,2.27,3.05-1.85,4.3.61.27L145,82.27a6.67,6.67,0,0,0,3-7h0a4.37,4.37,0,0,0-.69-1.61,4.35,4.35,0,0,1-.59-4.25L156.43,47a4.37,4.37,0,0,1,3.5-2.49,4.31,4.31,0,0,0,1.65-.59h0a6.67,6.67,0,0,0,3-7l-.45-2.18-.61-.27-1.86,4.3-3.77.44-2.27-3,1.83-4.31-.59-.26L155,32.73a6.67,6.67,0,0,0-3,7h0a4.37,4.37,0,0,0,.69,1.61,4.35,4.35,0,0,1,.59,4.25Z" transform="translate(-22.37 -17.38)"/>
	</g>

	<g id="Rotor">
		<polygon id="BackgroundPolly-6" data-name="BackgroundPolly" class="cls-4" points="66.83 14.16 40.64 2.87 14.14 13.4 2.84 39.59 13.38 66.09 39.57 77.39 66.07 66.85 77.36 40.66 66.83 14.16"/>
		<path id="disc" class="cls-8" d="M81.31,62.13A20.27,20.27,0,1,1,71.42,39.8m-6.9,16.41a3.24,3.24,0,1,0-1.64,4.27A3.23,3.23,0,0,0,64.52,56.21Z" transform="translate(-22.37 -17.38)"/>
		<path id="inner_ring_grooves" class="cls-9" d="M75.49,64.7a17.15,17.15,0,0,1-1.11,1.83M72,69.24l.57-.54m2.57-.13a17.47,17.47,0,0,0,2.83-5m-9.28,9.88a18,18,0,0,0,2.26-1.2m-.34-18.78a9.87,9.87,0,1,0-5,13A9.87,9.87,0,0,0,70.58,53.51Z" transform="translate(-22.37 -17.38)"/>
		<g id="holes">
			<circle class="cls-11" cx="39.19" cy="40.15" r="6.28"/>
		</g><path id="caliper" class="cls-6" d="M83.63,61.1c2.55-1.13,3.81-3.81.14-4.82,0-5.88-2-10.73-6.38-14.34,1.71-3.39-1.19-4.26-3.76-3.12L65.4,42.48a3.21,3.21,0,0,0-1.93,4.08h0l2.48.74h0l3.51-1.56h0l4,2.86a6.41,6.41,0,0,1,2.7,6.11l-.58,4.82h0l-3.51,1.56h0L71,63.47v0a3.2,3.2,0,0,0,4.3,1.29Z" transform="translate(-22.37 -17.38)"/>
	</g>

</svg>