<svg id="Engine" xmlns="http://www.w3.org/2000/svg" viewBox="0 0 74.52 74.52"><defs><style>.cls-1{fill:#e6e6e6;}.cls-2{fill:#d1d1e5;stroke:#000;stroke-miterlimit:10;stroke-width:0.5px;}</style></defs><title>Engine</title><polygon id="BackgroundPolly" class="cls-1" points="63.98 11.29 37.8 0 11.29 10.53 0 36.72 10.53 63.23 36.72 74.52 63.23 63.98 74.52 37.8 63.98 11.29"/><path id="engine-2" data-name="engine" class="cls-2" d="M163.25,156.91H145.77a1.24,1.24,0,0,1-.84-.32l-5.48-4.94-5.46,0a1.29,1.29,0,0,1-.89-.37,1.22,1.22,0,0,1-.37-.88V144.8l-1.64.06v6.37a1.25,1.25,0,0,1-2.5,0v-7.57a1.23,1.23,0,0,1,.65-1.09,1.26,1.26,0,0,1-.65-1.1V133.8a1.25,1.25,0,0,1,2.5,0v6.46l1.64.05v-5.58a1.25,1.25,0,0,1,1.25-1.25h5.17v-1.69a1.25,1.25,0,0,1,1.23-1.25l7.31-.15v-1.61h-6.31a1.25,1.25,0,0,1,0-2.5h7.56l.18,0,.18,0h7a1.25,1.25,0,0,1,0,2.5h-5.75l0,1.69,7,.07a1.25,1.25,0,0,1,1.24,1.25v3.06l4.37,0a1.24,1.24,0,0,1,1.24,1.25v4.59H166l-.05-2a1.25,1.25,0,0,1,1.25-1.29h4.84a1.25,1.25,0,0,1,1.25,1.25v14.08a1.26,1.26,0,0,1-1.25,1.25h0l-4.88,0a1.26,1.26,0,0,1-1.24-1.22l-.06-2H164.5v4.88A1.25,1.25,0,0,1,163.25,156.91Zm-17-2.5H162v-4.88a1.25,1.25,0,0,1,1.25-1.25h3.83a1.25,1.25,0,0,1,1.25,1.22l.06,2,2.42,0V139.93H168.5l.06,2a1.26,1.26,0,0,1-1.25,1.28h-4.06A1.25,1.25,0,0,1,162,142v-4.6l-4.37,0a1.25,1.25,0,0,1-1.24-1.25V133l-7-.07a1.64,1.64,0,0,1-.44-.09l-7.28.15v1.71A1.25,1.25,0,0,1,140.4,136h-5.17v5.62a1.27,1.27,0,0,1-.38.9l-.06.05.06,0a1.27,1.27,0,0,1,.38.9v5.67l4.69,0h0a1.24,1.24,0,0,1,.84.32Z" transform="translate(-112.75 -105.24)"/></svg>