<svg id="Gauge" xmlns="http://www.w3.org/2000/svg" viewBox="0 0 74.52 74.52"><defs><style>.cls-1{fill:#e6e6e6;}.cls-2{fill:#d1d1e5;}.cls-2,.cls-3,.cls-4{stroke:#000;stroke-miterlimit:10;}.cls-3{fill:#999;}.cls-3,.cls-4{stroke-width:0.5px;}.cls-4{fill:none;}</style></defs><title>guage</title><polygon id="BackgroundPolly" class="cls-1" points="63.98 11.29 37.8 0 11.29 10.53 0 36.72 10.53 63.23 36.72 74.52 63.23 63.98 74.52 37.8 63.98 11.29"/><path id="inner" class="cls-2" d="M224.2,158.11c-3.49-2.89-5-7.73-5-12.61a18.33,18.33,0,0,1,36.66,0c0,4.88-1.51,9.74-5,12.59" transform="translate(-200.25 -105.24)"/><path id="needle" class="cls-3" d="M241.34,163.64l-3.84.34-3.84-.34.91-3.87h5.86ZM237.5,144.1c-.32,0-9.38-9.71-9.59-9.5s8.43,10.34,8.43,10.66a1.16,1.16,0,1,0,1.16-1.16Z" transform="translate(-200.25 -105.24)"/><path id="gauge-2" data-name="gauge" class="cls-4" d="M259,142.5A21.48,21.48,0,1,1,237.5,121,21.48,21.48,0,0,1,259,142.5ZM237.5,127.17v3.28m-10.07,0,2.72,2.72M248,130.45l-3.08,3.07M222.46,135l2.54,2.54m27.72-2.27-3.12,3.12m-30.35,5.48H223m32.83,0h-5.77" transform="translate(-200.25 -105.24)"/></svg>