<svg id="Rotor" xmlns="http://www.w3.org/2000/svg" viewBox="0 0 74.52 74.52"><defs><style>.cls-1{fill:#e6e6e6;}.cls-2{fill:#d1d1e5;}.cls-2,.cls-3,.cls-4,.cls-5{stroke:#000;stroke-miterlimit:10;}.cls-2,.cls-3,.cls-5{stroke-width:0.5px;}.cls-3,.cls-4{fill:none;stroke-linecap:round;}.cls-4{stroke-width:0.75px;stroke-dasharray:0 5.63;}.cls-5{fill:#999;}</style></defs><title>Rotor</title><polygon id="BackgroundPolly" class="cls-1" points="63.98 11.29 37.8 0 11.29 10.53 0 36.72 10.53 63.23 36.72 74.52 63.23 63.98 74.52 37.8 63.98 11.29"/><path id="disc" class="cls-2" d="M81.31,62.13A20.27,20.27,0,1,1,71.42,39.8m-6.9,16.41a3.24,3.24,0,1,0-1.64,4.27A3.23,3.23,0,0,0,64.52,56.21Z" transform="translate(-25.22 -20.24)"/><path id="inner_ring_grooves" class="cls-3" d="M75.49,64.7a17.15,17.15,0,0,1-1.11,1.83M72,69.24l.57-.54m2.57-.13a17.47,17.47,0,0,0,2.83-5m-9.28,9.88a18,18,0,0,0,2.26-1.2m-.34-18.78a9.87,9.87,0,1,0-5,13A9.87,9.87,0,0,0,70.58,53.51Z" transform="translate(-25.22 -20.24)"/><g id="holes"><circle class="cls-4" cx="36.34" cy="37.28" r="6.28"/></g><path id="caliper" class="cls-5" d="M83.63,61.1c2.55-1.13,3.81-3.81.14-4.82,0-5.88-2-10.73-6.38-14.34,1.71-3.39-1.19-4.26-3.76-3.12L65.4,42.48a3.21,3.21,0,0,0-1.93,4.08h0l2.48.74h0l3.51-1.56h0l4,2.86a6.41,6.41,0,0,1,2.7,6.11l-.58,4.82h0l-3.51,1.56h0L71,63.47v0a3.2,3.2,0,0,0,4.3,1.29Z" transform="translate(-25.22 -20.24)"/></svg>