<svg id="Shift" xmlns="http://www.w3.org/2000/svg" viewBox="0 0 74.52 74.52"><defs><style>.cls-1{fill:#e6e6e6;}.cls-2{fill:#d1d1e5;}.cls-2,.cls-3{stroke:#000;stroke-miterlimit:10;stroke-width:0.5px;}.cls-3{fill:#999;}</style></defs><title>Shift</title><polygon id="BackgroundPolly" class="cls-1" points="63.98 11.29 37.8 0 11.29 10.53 0 36.72 10.53 63.23 36.72 74.52 63.23 63.98 74.52 37.8 63.98 11.29"/><path id="slots" class="cls-2" d="M63.41,144.34v6.85a1,1,0,0,1-.93,1.07h0a1,1,0,0,1-.94-1.07v-6.85a1,1,0,0,0-.93-1.07H49.77a1,1,0,0,0-.93,1.07v6.85a1,1,0,0,1-.93,1.07h0a1,1,0,0,1-.93-1.07V132.81a1,1,0,0,1,.93-1.07h0a1,1,0,0,1,.93,1.07v6.86a1,1,0,0,0,.93,1.07H60.6a1,1,0,0,0,.93-1.07v-6.86a1,1,0,0,1,.94-1.07h0a1,1,0,0,1,.93,1.07v6.86a1,1,0,0,0,.94,1.07H75.22a1,1,0,0,0,.94-1.07v-6.86a1,1,0,0,1,.93-1.07h0a1,1,0,0,1,.93,1.07v9.39a1,1,0,0,1-.93,1.07H64.35A1,1,0,0,0,63.41,144.34Zm12.75.82v6a1,1,0,0,0,.93,1.07h0a1,1,0,0,0,.93-1.07v-6a1,1,0,0,0-.93-1.07h0A1,1,0,0,0,76.16,145.16Z" transform="translate(-25.23 -105.24)"/><path id="numbers" class="cls-3" d="M47.11,123c1.23,0,1.57.45,1.57,1.62v5.17H47.5v-5.09c0-.36-.13-.51-.49-.51h-.62V123ZM63,123c1.59,0,2.27.78,2.27,1.82a1.53,1.53,0,0,1-1,1.56,1.56,1.56,0,0,1,1,1.59c0,1-.67,1.82-2.26,1.82H59.6v-1.19H63c.69,0,1-.32,1-.86s-.35-.82-1-.82H60.93v-1.07H63c.69,0,1-.25,1-.82s-.31-.84-1-.84H59.61V123Zm16.39,0v1.19H75.46c-.09,0-.13,0-.13.12v1.24c0,.08,0,.12.13.12h2c1.83,0,2.29.9,2.29,2a1.93,1.93,0,0,1-2.17,2.13H74.18v-1.19h3.45a.85.85,0,0,0,1-1c0-.55-.25-.9-1-.9H74.71a.49.49,0,0,1-.56-.55v-2.63a.49.49,0,0,1,.56-.56ZM49,154.05a1.79,1.79,0,0,1,2,1.92,1.7,1.7,0,0,1-1.57,1.81l-2.83.64a.63.63,0,0,0-.56.74v.34c0,.11,0,.14.13.14h4.65v1.19h-5.4a.49.49,0,0,1-.56-.55v-1a1.67,1.67,0,0,1,1.48-1.95l2.86-.65c.48-.11.63-.34.63-.66a.73.73,0,0,0-.84-.76H45.13v-1.18Zm12.71.76a1.75,1.75,0,0,1,1.58-.76h.75a1.08,1.08,0,0,1,1.23,1.23v5.55h-1.2v-1.41H60.91c-1.15,0-1.57-.41-1.57-1.17a1.55,1.55,0,0,1,.42-1.1Zm-.93,2.91a.4.4,0,0,0-.13.31c0,.22.14.34.46.34h3v-2.81c0-.21-.09-.33-.3-.33h-.53a.68.68,0,0,0-.62.29Zm17.08-3.67a2,2,0,0,1,2.18,2,2,2,0,0,1-1.44,2l1.58,2.71H78.87l-1.55-2.62H75.55a.15.15,0,0,0-.17.17v2.45H74.2v-2.68c0-.77.32-1.08,1.06-1.08h2.65a.87.87,0,0,0,.94-.94.85.85,0,0,0-.94-.9H74.19v-1.18Z" transform="translate(-25.23 -105.24)"/></svg>