<svg id="Steering" xmlns="http://www.w3.org/2000/svg" viewBox="0 0 74.52 74.52"><defs><style>.cls-1{fill:#e6e6e6;}.cls-2{fill:#999;}.cls-2,.cls-3,.cls-4{stroke:#000;stroke-miterlimit:10;stroke-width:0.5px;}.cls-3{fill:#d1d1e5;}.cls-4{fill:none;stroke-linecap:round;}</style></defs><title>Steering</title><polygon id="BackgroundPolly" class="cls-1" points="63.98 11.29 37.8 0 11.29 10.53 0 36.72 10.53 63.23 36.72 74.52 63.23 63.98 74.52 37.8 63.98 11.29"/><path class="cls-2" d="M263,57.5A25.5,25.5,0,1,1,237.5,32,25.5,25.5,0,0,1,263,57.5Zm-6.48,2.85a1.83,1.83,0,0,1-1.83-1.83v-2a1.83,1.83,0,0,1,1.83-1.83h0a1.75,1.75,0,0,0,1.72-2.13,21.33,21.33,0,0,0-41.48,0,1.75,1.75,0,0,0,1.72,2.13h0a1.83,1.83,0,0,1,1.83,1.83v2a1.83,1.83,0,0,1-1.83,1.83h0a1.76,1.76,0,0,0-1.73,2.13,21.38,21.38,0,0,0,15.53,15.71l1.08-.87h0a1.84,1.84,0,0,1,1.83-1.83h4.62a1.84,1.84,0,0,1,1.83,1.83h0l1.08.87a21.37,21.37,0,0,0,15.55-15.7,1.76,1.76,0,0,0-1.7-2.14Z" transform="translate(-200.24 -20.24)"/><path class="cls-3" d="M242.47,56.08l11.95-.2a1.72,1.72,0,0,1-.42,3.41l-10.06,1-.34,0a6,6,0,0,1-3.56,5.4l0,.41-.52,9.7a2,2,0,0,1-4,0L235,66l0-.43a6,6,0,0,1-3.37-5.34l-.34,0-10.42-1.21a1.63,1.63,0,0,1-.36-3.24l12.32.19.58-.09a6,6,0,0,1,8.5,0Zm-4.87,2.29a1.79,1.79,0,1,0,1.78,1.79A1.79,1.79,0,0,0,237.6,58.37Z" transform="translate(-200.24 -20.24)"/><path class="cls-4" d="M216.79,62.71a22.19,22.19,0,0,1-.55-3.39" transform="translate(-200.24 -20.24)"/><path class="cls-4" d="M238.49,78.84l-1,0" transform="translate(-200.24 -20.24)"/><path class="cls-4" d="M243.76,77.92a22,22,0,0,1-4.17.84" transform="translate(-200.24 -20.24)"/><path class="cls-4" d="M257.49,50a21.49,21.49,0,0,1,1.38,7.6" transform="translate(-200.24 -20.24)"/><path class="cls-4" d="M216.24,58.46v-.17" transform="translate(-200.24 -20.24)"/></svg>