<svg id="WrenchGear" xmlns="http://www.w3.org/2000/svg" viewBox="0 0 74.52 74.52"><defs><style>.cls-1{fill:#e6e6e6;}.cls-2{fill:#ccc;}.cls-2,.cls-3{stroke:#000;stroke-miterlimit:10;stroke-width:0.5px;}.cls-3{fill:#d1d1e5;}</style></defs><title>WrenchGear</title><polygon id="BackgroundPolly" class="cls-1" points="63.98 11.29 37.8 0 11.29 10.53 0 36.72 10.53 63.23 36.72 74.52 63.23 63.98 74.52 37.8 63.98 11.29"/><path id="gear" class="cls-2" d="M143.6,77.67l-1-5.09-5-3.66-5.14.57-2.18-4.13,3.37-3.93-.23-6.15-3.65-3.67,1.87-4.28,5.17.19,4.67-4,.59-5.14,4.51-1.21,3.08,4.16,6.05,1.15,4.39-2.74,3.76,2.77-1.33,5,2.87,5.45,4.89,1.72.17,4.66-4.74,2.08-2.47,5.65,1.7,4.89-3.54,3-4.58-2.41-6,1.59-2.77,4.38Zm19.17-24-3.63-5.87-6.09-3.27-6.9.22-5.87,3.63L137,54.45l.22,6.9,3.63,5.87L147,70.49l6.9-.22,5.87-3.63L163,60.55Zm-9.08,2.74-1.05-1.7-1.76-.94-2,.06-1.7,1-.94,1.76.06,2,1.05,1.7,1.76.94,2-.06,1.7-1,.94-1.76Z" transform="translate(-112.74 -20.24)"/><path id="wrench" class="cls-3" d="M143.57,68a4.37,4.37,0,0,1-3.5,2.49,4.31,4.31,0,0,0-1.65.59h0a6.67,6.67,0,0,0-3,7l.45,2.18.59.26,1.88-4.29,3.77-.44,2.27,3.05-1.85,4.3.61.27L145,82.27a6.67,6.67,0,0,0,3-7h0a4.37,4.37,0,0,0-.69-1.61,4.35,4.35,0,0,1-.59-4.25L156.43,47a4.37,4.37,0,0,1,3.5-2.49,4.31,4.31,0,0,0,1.65-.59h0a6.67,6.67,0,0,0,3-7l-.45-2.18-.61-.27-1.86,4.3-3.77.44-2.27-3,1.83-4.31-.59-.26L155,32.73a6.67,6.67,0,0,0-3,7h0a4.37,4.37,0,0,0,.69,1.61,4.35,4.35,0,0,1,.59,4.25Z" transform="translate(-112.74 -20.24)"/></svg>