<svg xmlns="http://www.w3.org/2000/svg" viewBox="0 0 255.25 165.25">
	<defs>
		<style>.cls-1,.cls-2,.cls-3,.cls-8{fill:none;}.cls-1,.cls-2,.cls-3,.cls-4,.cls-5,.cls-6,.cls-7,.cls-8{stroke:#000;stroke-miterlimit:10;}.cls-1,.cls-2,.cls-3{stroke-width:0.25px;}.cls-2{stroke-dasharray:11.57 11.57;}.cls-3{stroke-dasharray:11.77 11.77;}.cls-4{fill:#96dcff;}.cls-4,.cls-5,.cls-6,.cls-7,.cls-8{stroke-width:0.5px;}.cls-5{fill:#dc96ff;}.cls-6{fill:#b9ff96;}.cls-7{fill:#ffb996;}
		</style>
	</defs>

	<title>All_splat_icons</title>

	<g id="AllSplat">
		<path id="blue" class="cls-4" d="M262.85,144.76l-2.72-.9a.88.88,0,0,0-1.15.65l-.14.64a1.09,1.09,0,0,1-2,.25l-.27-.55a.94.94,0,0,0-1.34-.37l-1.66,1.06a.6.6,0,0,1-.89-.7l.41-1.24a1.53,1.53,0,0,0-1.12-2l-2.11-.47a.29.29,0,0,1-.06-.55l.35-.18a3.13,3.13,0,0,0,1.24-4.47l-.21-.33a.29.29,0,0,1,.34-.44L254,136a1.11,1.11,0,0,0,1.44-.82l.57-2.54a.3.3,0,0,1,.56-.07l.61,1.22a2.24,2.24,0,0,0,3.2.89h0a.79.79,0,0,1,1.17.91l-.33.56a1.74,1.74,0,0,0,1.5,2.63h1.81a.29.29,0,0,1,.07.55l-3.29,1.16a1,1,0,0,0-.36,1.64l2.27,2.18A.3.3,0,0,1,262.85,144.76Z" transform="translate(-22.38 -17.38)"/>
		<path id="purple" class="cls-5" d="M246.5,120.14l.73,2a.66.66,0,0,0,.91.36l.43-.21a.8.8,0,0,1,1.08,1l-.19.41a.7.7,0,0,0,.4.94l1.38.47a.44.44,0,0,1,0,.83l-.9.33a1.14,1.14,0,0,0-.63,1.56l.71,1.43a.22.22,0,0,1-.29.29l-.26-.12a2.31,2.31,0,0,0-3.15,1.35l-.09.27a.22.22,0,0,1-.41,0l-.67-1.82a.83.83,0,0,0-1.13-.45l-1.73.85a.23.23,0,0,1-.3-.3l.42-.91a1.65,1.65,0,0,0-1-2.25h0a.58.58,0,0,1,0-1.09l.48-.07a1.28,1.28,0,0,0,.82-2.07l-.84-1a.22.22,0,0,1,.29-.3l2.18,1.36a.73.73,0,0,0,1.11-.55l.21-2.31A.22.22,0,0,1,246.5,120.14Z" transform="translate(-22.38 -17.38)"/>
		<path id="green" class="cls-6" d="M232.42,124.85l.43,1.14a.37.37,0,0,0,.52.21l.25-.12a.45.45,0,0,1,.61.6l-.1.24a.4.4,0,0,0,.23.54l.79.27a.25.25,0,0,1,0,.47l-.52.2a.64.64,0,0,0-.35.89l.4.82a.12.12,0,0,1-.16.17l-.16-.07a1.31,1.31,0,0,0-1.8.78l-.06.15a.12.12,0,0,1-.23,0l-.39-1a.47.47,0,0,0-.65-.27l-1,.49a.13.13,0,0,1-.17-.17l.24-.52a.94.94,0,0,0-.56-1.29h0a.33.33,0,0,1,0-.63l.27,0a.74.74,0,0,0,.47-1.19l-.48-.6a.13.13,0,0,1,.17-.17l1.25.78a.42.42,0,0,0,.64-.32l.12-1.33A.12.12,0,0,1,232.42,124.85Z" transform="translate(-22.38 -17.38)"/>
		<path id="orange" class="cls-7" d="M211.84,152.94l7.08-2.68a2.37,2.37,0,0,0,1.27-3.26l-.78-1.54a2.86,2.86,0,0,1,3.73-3.88l1.47.66a2.45,2.45,0,0,0,3.34-1.47l1.65-4.93a1.58,1.58,0,0,1,3-.06l1.22,3.22a4,4,0,0,0,5.59,2.19l5.09-2.55a.78.78,0,0,1,1.06,1l-.42.95A8.25,8.25,0,0,0,250,151.82l1,.32a.78.78,0,0,1,0,1.47l-6.47,2.45a2.94,2.94,0,0,0-1.59,4.06l3.07,6.14a.8.8,0,0,1-1,1.09l-3.27-1.48a5.9,5.9,0,0,0-8,3.52h0a2.08,2.08,0,0,1-3.91.07l-.25-1.69a4.61,4.61,0,0,0-7.45-2.88l-3.71,3a.78.78,0,0,1-1.06-1l4.79-7.84a2.61,2.61,0,0,0-2-4l-8.25-.68A.78.78,0,0,1,211.84,152.94Z" transform="translate(-22.38 -17.38)"/>
		<polygon class="cls-8" points="214.28 87.15 251.09 115.98 237.03 162.63 191.54 162.63 177.48 115.98 214.28 87.15"/>
	</g>

	<g id="PurpSplat">
		<rect class="cls-8" x="109.89" y="130.89" width="79.63" height="24.19" transform="translate(-79.63 130.36) rotate(-45)"/>
		<path id="purple-2" data-name="purple" class="cls-5" d="M140.45,132.6l-2.72-.91a.88.88,0,0,0-1.15.65l-.15.64a1.08,1.08,0,0,1-2,.25l-.27-.55a1,1,0,0,0-1.34-.37l-1.66,1.06a.6.6,0,0,1-.89-.69l.41-1.24a1.52,1.52,0,0,0-1.12-2l-2.11-.48a.29.29,0,0,1-.07-.55l.36-.17a3.14,3.14,0,0,0,1.24-4.48l-.21-.33a.29.29,0,0,1,.34-.44l2.49.83A1.12,1.12,0,0,0,133,123l.56-2.54a.3.3,0,0,1,.57-.07l.61,1.21a2.23,2.23,0,0,0,3.2.89h0a.79.79,0,0,1,1.17.91l-.33.56a1.74,1.74,0,0,0,1.5,2.63h1.81a.3.3,0,0,1,.07.55l-3.29,1.16a1,1,0,0,0-.36,1.65l2.26,2.18A.3.3,0,0,1,140.45,132.6Zm15.15-14-.21,2.3a.73.73,0,0,1-1.11.56l-2.18-1.36a.21.21,0,0,0-.28.29l.83,1a1.28,1.28,0,0,1-.82,2.07l-.47.07a.58.58,0,0,0,0,1.09h0a1.65,1.65,0,0,1,1,2.25l-.42.91a.22.22,0,0,0,.3.29l1.72-.84a.81.81,0,0,1,1.13.45l.67,1.81a.22.22,0,0,0,.41,0l.1-.28a2.29,2.29,0,0,1,3.14-1.34l.26.12a.22.22,0,0,0,.29-.3l-.7-1.43a1.12,1.12,0,0,1,.62-1.55l.9-.34a.44.44,0,0,0,0-.83l-1.37-.47a.69.69,0,0,1-.4-.94l.18-.4a.79.79,0,0,0-1.07-1l-.44.21a.65.65,0,0,1-.9-.36l-.74-2A.22.22,0,0,0,155.6,118.57Zm14.17,42.58-6-5.75a2.61,2.61,0,0,1,.94-4.34l8.67-3.05a.78.78,0,0,0-.18-1.46h-4.78a4.59,4.59,0,0,1-4-6.93l.87-1.48a2.07,2.07,0,0,0-3.08-2.4h0a5.9,5.9,0,0,1-8.43-2.34l-1.61-3.21a.8.8,0,0,0-1.49.18l-1.5,6.7a2.93,2.93,0,0,1-3.79,2.15L138.9,137a.78.78,0,0,0-.9,1.16l.55.87a8.25,8.25,0,0,1-3.27,11.81l-.93.46a.78.78,0,0,0,.18,1.46l5.56,1.24a4,4,0,0,1,3,5.22L142,162.52a1.58,1.58,0,0,0,2.34,1.83l4.39-2.79a2.46,2.46,0,0,1,3.52,1l.72,1.44a2.86,2.86,0,0,0,5.34-.66l.38-1.69a2.34,2.34,0,0,1,3-1.71l7.18,2.39A.78.78,0,0,0,169.77,161.15Z" transform="translate(-22.38 -17.38)"/>
	</g>

	<g id="OrangeSplat">
		<ellipse class="cls-8" cx="62.75" cy="142.66" rx="11.76" ry="50.68" transform="translate(-104.87 68.78) rotate(-45)"/>
		<path id="orange-2" data-name="orange" class="cls-7" d="M59.67,165.23l-3.4,1.5a8.43,8.43,0,0,1-5.15.52L50,167a19.85,19.85,0,0,1-10.68-6.12c-1.91-2.14-2.06-3.34-2.24-6.35a10.69,10.69,0,0,1,2.72-10c2.79-2.88,6.43-6.37,8.88-7.88h0a3.82,3.82,0,0,1,5.77,3.81l-.34,2.37a.37.37,0,0,0,.05.27A5.92,5.92,0,0,0,59,146a.57.57,0,0,0,.18,0l8.15-3.48c4.71-2,6.68.09,4.36,4.66l-4.3,8.47s-1.85,3.2-3.28,5.65A9.76,9.76,0,0,1,59.67,165.23Zm6-29.82,1.5-1.69,2-2.57c1.1-1.38.58-2.23-1.15-1.87l-.59.12a3.56,3.56,0,0,1-3.88-1.85c-.47-.89-1-1.66-1.46-1.49h0a20.25,20.25,0,0,0-3.53,2.06,3.69,3.69,0,0,0-1.6,3.18,2.86,2.86,0,0,0,.31,2.27,6.93,6.93,0,0,0,3.22,2.83l.36.15a2.86,2.86,0,0,0,1.78.18l1.25-.28A3.31,3.31,0,0,0,65.63,135.41Zm20.43-13.5.51-1.21.63-1.79c.34-1-.11-1.34-1-.82,0,0-6,2.52-5.71,3.2a1.59,1.59,0,0,0,.6,1.19,3.94,3.94,0,0,0,2.31,1l.22,0a1.62,1.62,0,0,0,1-.24l.64-.39A1.87,1.87,0,0,0,86.06,121.91Zm-13.42-.55c.15-.38.36-.88.36-.88l.46-1.3c.24-.7-.08-1-.72-.59,0,0-4.32,1.82-4.13,2.32a1.22,1.22,0,0,0,.43.86,3,3,0,0,0,1.67.69h.17a1.25,1.25,0,0,0,.73-.17l.46-.28A1.46,1.46,0,0,0,72.64,121.36Zm6.87,22.14.42-.85.53-1.27c.28-.69,0-1-.68-.63,0,0-4.42,1.56-4.26,2.07a1.22,1.22,0,0,0,.38.89,2.93,2.93,0,0,0,1.63.78l.16,0a1.17,1.17,0,0,0,.74-.13l.48-.26A1.38,1.38,0,0,0,79.51,143.5Zm2.76-9.05.83-1.88,1.06-2.8c.57-1.51-.12-2.1-1.53-1.31,0,0-9.47,3.72-9.08,4.81a2.63,2.63,0,0,0,.9,1.9A6.3,6.3,0,0,0,78,136.74l.36,0a2.6,2.6,0,0,0,1.59-.34l1-.59A3.06,3.06,0,0,0,82.27,134.45Z" transform="translate(-22.38 -17.38)"/>
	</g>

	<g id="GreenSplat">
		<circle class="cls-8" cx="215.54" cy="39.52" r="36.89"/>
		<path id="green-2" data-name="green" class="cls-6" d="M243.12,68.55l-2.05-2.17c-.78-.82-1.44-.57-1.47.56l-.19,7.42a.85.85,0,0,1-1.7.09l-.81-6.09c-.24-1.78-1-1.87-1.63-.2L234.52,70a.85.85,0,0,1-1.64-.4l.35-3.41c.13-1.2-.51-1.53-1.41-.72l-5.49,4.93a.85.85,0,0,1-1.23-1.18l3.05-3.75c1.65-2,1.16-2.6-1.09-1.27h0A.86.86,0,0,1,226,62.9l2-2c1.09-1.12.73-1.76-.79-1.42l-3.38.73a.85.85,0,0,1-.52-1.62l4.82-2.08c1.07-.46,1-1.17,0-1.57l-6.73-2.53a.86.86,0,0,1,.47-1.64l6.8,1.43c1.55.33,1.9-.32.78-1.43l-3.28-3.26a.86.86,0,0,1,1.09-1.31l4.9,3.33c1,.66,1.56.26,1.31-.88l-2-9a.86.86,0,0,1,1.64-.47l2.39,6.61c.81,2.23,1.55,2.12,1.65-.25l.07-1.63a.86.86,0,0,1,1.7-.12l.87,4.65c.19,1,.87,1.18,1.5.36l2.37-3a.85.85,0,0,1,1.46.86l-1.67,3.91c-.33.77.08,1.3.91,1.17l7.35-1.12a.85.85,0,0,1,.38,1.66l-3.51,1.1c-2.16.68-2.08,1.43.17,1.66l1.69.17a.86.86,0,0,1,0,1.7l-2.13.34c-1.72.28-1.8,1-.17,1.64l6.36,2.41a.86.86,0,0,1-.49,1.64l-6.69-1.45c-1.6-.34-1.94.31-.77,1.44l3.9,3.79A.85.85,0,0,1,249.39,68l-4.32-2.9c-1.43-1-2-.47-1.24,1.08l.68,1.4A.85.85,0,0,1,243.12,68.55Z" transform="translate(-22.38 -17.38)"/>
	</g>

	<g id="ThreeSplat">
		<path id="blue-2" data-name="blue" class="cls-4" d="M143.93,54.24l1.37-.4c.66-.19.69-.59.07-.88h0c-4.19-2-3.84-3.26.77-2.87h0c.67.05.83-.3.37-.78L145.26,48c-2.51-2.62-1.89-3.47,1.37-1.87h0c1.53.74,2.23.09,1.6-1.43h0c-1.41-3.39-.52-4,2-1.27l1.18,1.27c.45.49.81.35.8-.32v-.44c-.12-4.42,1.12-4.67,2.76-.57h0c.34.87.88.86,1.19,0l.32-.88c1.3-3.64,2.4-3.45,2.44.41v.93c0,.92.5,1.11,1.11.41l1-1.15c2.33-2.67,3.2-2.14,2,1.14l-.71,1.87c-.23.63.06.89.65.57l1.68-.88c3.16-1.67,3.8-.85,1.42,1.82h0c-1.15,1.28-.7,2.16,1,2h0c3.55-.4,3.85.59.67,2.22l-1.55.79c-.66.33-.61.76.11.95L168,54c3.4.88,3.32,1.9-.18,2.26h-.08c-1.71.18-2,1.13-.59,2.12h0c2.9,2.09,2.45,3-1,2.09L164.5,60c-.71-.19-1,.16-.56.78h0c2.47,3.79,1.51,4.69-2.13,2l-.1-.08c-.55-.4-.88-.19-.74.47h0c.95,4.51-.28,5-2.75,1.11l-.25-.38c-.22-.36-.47-.31-.54.11l-.28,1.73c-.63,3.84-1.76,3.86-2.51,0h0c-.27-1.36-1.06-1.49-1.76-.3l-.34.59c-1.8,3.07-2.75,2.72-2.12-.75l.35-2c.13-.7-.22-.91-.78-.47h0c-3.62,2.88-4.61,2-2.2-1.94l.39-.65c.15-.23,0-.36-.22-.28l-2.61.81c-3.39,1-3.86.14-1.07-2l1.58-1.22c.54-.41.42-.79-.25-.84l-1.42-.1C140.38,56.41,140.26,55.31,143.93,54.24Z" transform="translate(-22.38 -17.38)"/>
		<path id="orange-3" data-name="orange" class="cls-7" d="M160.64,71.26l-1.11-.92c-.53-.43-.88-.23-.77.44v0c.73,4.57-.53,5-2.8,1h0c-.33-.58-.72-.53-.86.13l-.37,1.75c-.76,3.56-1.81,3.52-2.33-.08h0c-.24-1.68-1.17-1.89-2.07-.51h0c-2,3.07-3,2.65-2.17-.92l.39-1.7c.15-.65-.17-.86-.72-.47l-.35.25c-3.59,2.58-4.5,1.7-2-2h0c.52-.77.21-1.21-.69-1l-.91.24c-3.74,1-4.21,0-1-2.25l.76-.53c.76-.53.63-1-.28-1.15l-1.52-.18c-3.51-.42-3.57-1.44-.17-2.27l1.95-.47c.65-.16.7-.55.11-.86L142,58.93c-3.17-1.67-2.85-2.66.7-2.19h0c1.71.22,2.18-.64,1.07-1.93h0c-2.34-2.71-1.69-3.51,1.45-1.8l1.52.84c.65.35,1,.07.73-.63l-.62-1.73c-1.18-3.31-.29-3.82,2-1.13l0,.06c1.11,1.32,2,1,2.08-.7h0c.1-3.58,1.13-3.73,2.29-.35l.56,1.63c.24.71.68.72,1,0h0c1.75-4.17,3-3.89,2.85.64v.13c0,.68.33.83.8.34h0c3.2-3.33,4.32-2.59,2.48,1.65l-.19.42c-.17.39,0,.56.4.38l1.59-.74c3.53-1.64,4.18-.72,1.45,2h0c-1,1-.64,1.72.74,1.62l.68,0c3.55-.24,3.8.74.57,2.17l-1.82.82c-.65.29-.63.7,0,.91h0c4.42,1.38,4.25,2.69-.37,2.91l-.76,0c-.28,0-.33.16-.11.34l2.14,1.71c2.77,2.21,2.29,3.11-1.05,2l-1.9-.63c-.64-.21-.89.1-.55.68l.72,1.23C164.42,73,163.58,73.68,160.64,71.26Z" transform="translate(-22.38 -17.38)"/>
		<path id="purple-3" data-name="purple" class="cls-5" d="M150.8,68.74,148,66.43c-.53-.44-.87-.24-.77.44l.81,5c.29,1.8-.21,2-1.11.39l-2.5-4.44c-.33-.58-.72-.52-.86.14l-.37,1.75c-.76,3.55-1.8,3.51-2.32-.08h0c-.24-1.69-1.17-1.89-2.08-.52L137.59,71c-1.35,2.06-2,1.78-1.45-.62l.88-3.83c.15-.66-.18-.87-.72-.48l-4.63,3.32c-1.24.89-1.55.59-.7-.67l2.95-4.36c.52-.77.21-1.2-.69-1l-.91.23c-3.74,1-4.2,0-1-2.25l.77-.53c.75-.52.62-1-.29-1.15l-1.52-.18c-3.51-.42-3.57-1.44-.16-2.26l1.94-.48c.65-.15.7-.54.11-.86l-5-2.64c-1.34-.71-1.2-1.13.3-.93l3.72.49c1.71.23,2.18-.64,1.07-1.93h0c-2.34-2.7-1.68-3.51,1.45-1.79l1.52.83c.66.36,1,.08.73-.63l-1.84-5.17c-.51-1.42-.13-1.64.84-.49l2.42,2.87c1.1,1.31,2,1,2.08-.71l0-1.61c.07-2.69.85-2.81,1.72-.26l1.09,3.16c.24.7.67.71,1,0l2.08-5c.6-1.44,1-1.34,1,.22l-.22,5.52c0,.68.34.83.81.34h0c3.2-3.33,4.31-2.59,2.47,1.65l-.18.42c-.17.39,0,.56.39.38l4.2-2c2.1-1,2.48-.43.86,1.22l-2.93,3c-.47.48-.31.83.36.79l2-.14c3.56-.24,3.8.74.58,2.18l-1.85.82c-.64.28-.62.69,0,.9l5.48,1.7c1.41.44,1.36.86-.12.94l-5.71.27c-.69,0-.82.42-.27.85l1.55,1.24c2.77,2.21,2.28,3.11-1.06,2l-1.9-.62c-.64-.21-.88.09-.54.67l1.82,3.14C153.39,69.91,152.81,70.4,150.8,68.74Z" transform="translate(-22.38 -17.38)"/>
		<rect class="cls-8" x="123.31" y="30.81" width="52.49" height="52.49" transform="translate(-21.43 99.16) rotate(-42.7)"/>
	</g>

	<g id="BlueSplat">
		<polygon class="cls-8" points="77.65 72.71 40.38 72.73 3.1 72.76 21.72 37.69 40.33 2.63 58.99 37.67 77.65 72.71"/>
		<path id="blue-3" data-name="blue" class="cls-4" d="M86.86,58.73c3.89-.2,4.21,1.05.72,2.76L76.9,66.74a.56.56,0,0,0,0,.89l5.13,4a2,2,0,0,1-1.34,3.66l-2.81-.11a3.44,3.44,0,0,0-3.5,4.15l5.11,11.9a1.59,1.59,0,0,1-2.73,1.6l-5.71-7.41a4.59,4.59,0,0,0-8,.67l-.13.42c-3.24,10.44-5.23,10.06-4.43-.84h0c-.54-4-3.83-5.71-7.84-5l-7,.92c-4,.52-4.53-.92-1.23-3.2l.66-.45a5.77,5.77,0,0,0-1.5-10.23l-6.94-2.14c-2.27-.7-2.19-1.39.19-1.53l14.62-.88A1.91,1.91,0,0,0,51,60.23L49.8,58.34c-2.37-3.79-.92-5.51,3.22-3.82l1.62.66a2.87,2.87,0,0,0,3.93-2.26L57.32,42.15a1.46,1.46,0,0,1,2.79-.77l2.7,6a6.17,6.17,0,0,0,9.77,2.06l2.49-2.24C75.36,47,80.65,40.5,83.62,37a.35.35,0,0,1,.57.4l-9.8,17.79a3.32,3.32,0,0,0,3.36,4ZM42.42,52.5a1.25,1.25,0,0,0-1,1.44c.12.68.76.94,1.44,1,.37,0,2,.62,2.16.34s-1-1.46-1.14-1.78C43.53,52.92,43.1,52.39,42.42,52.5ZM48.34,45a1.84,1.84,0,0,0-2.29,1.26c-.29,1,.4,1.73,1.25,2.29.46.3,2.23,2.11,2.65,1.87s-.32-2.58-.36-3.13C49.53,46.23,49.32,45.25,48.34,45Zm-10.9-4.35A3.41,3.41,0,0,0,34,44c0,1.88,1.6,2.86,3.4,3.4,1,.29,5,2.59,5.66,1.93S41.19,45,40.85,44C40.21,42.25,39.32,40.61,37.44,40.61Z" transform="translate(-22.38 -17.38)"/>
	</g>

</svg>