<svg id="BlueSplat" xmlns="http://www.w3.org/2000/svg" viewBox="0 0 75.38 74.89">
	<defs>
		<style>.cls-1{fill:none;}.cls-1,.cls-2{stroke:#000;stroke-miterlimit:10;stroke-width:0.5px;}.cls-2{fill:#96dcff;}
		</style>
	</defs>
	<title>BLueSplat</title>

	<polygon class="cls-1" points="74.96 70.61 37.69 70.64 0.42 70.67 19.03 35.6 37.64 0.53 56.3 35.57 74.96 70.61"/>

	<path id="blue" class="cls-2" d="M86.86,58.73c3.89-.2,4.21,1.05.72,2.76L76.9,66.74a.56.56,0,0,0,0,.89l5.13,4a2,2,0,0,1-1.34,3.66l-2.81-.11a3.44,3.44,0,0,0-3.5,4.15l5.11,11.9a1.59,1.59,0,0,1-2.73,1.6l-5.71-7.41a4.59,4.59,0,0,0-8,.67l-.13.42c-3.24,10.44-5.23,10.06-4.43-.84h0c-.54-4-3.83-5.71-7.84-5l-7,.92c-4,.52-4.53-.92-1.23-3.2l.66-.45a5.77,5.77,0,0,0-1.5-10.23l-6.94-2.14c-2.27-.7-2.19-1.39.19-1.53l14.62-.88A1.91,1.91,0,0,0,51,60.23L49.8,58.34c-2.37-3.79-.92-5.51,3.22-3.82l1.62.66a2.87,2.87,0,0,0,3.93-2.26L57.32,42.15a1.46,1.46,0,0,1,2.79-.77l2.7,6a6.17,6.17,0,0,0,9.77,2.06l2.49-2.24C75.36,47,80.65,40.5,83.62,37a.35.35,0,0,1,.57.4l-9.8,17.79a3.32,3.32,0,0,0,3.36,4ZM42.42,52.5a1.25,1.25,0,0,0-1,1.44c.12.68.76.94,1.44,1,.37,0,2,.62,2.16.34s-1-1.46-1.14-1.78C43.53,52.92,43.1,52.39,42.42,52.5ZM48.34,45a1.84,1.84,0,0,0-2.29,1.26c-.29,1,.4,1.73,1.25,2.29.46.3,2.23,2.11,2.65,1.87s-.32-2.58-.36-3.13C49.53,46.23,49.32,45.25,48.34,45Zm-10.9-4.35A3.41,3.41,0,0,0,34,44c0,1.88,1.6,2.86,3.4,3.4,1,.29,5,2.59,5.66,1.93S41.19,45,40.85,44C40.21,42.25,39.32,40.61,37.44,40.61Z" transform="translate(-25.06 -19.47)"/>
	
</svg>