<svg id="GreenSplat" xmlns="http://www.w3.org/2000/svg" viewBox="0 0 74.28 74.28">
	<defs>
		<style>.cls-1{fill:none;}.cls-1,.cls-2{stroke:#000;stroke-miterlimit:10;stroke-width:0.5px;}.cls-2{fill:#b9ff96;}
		</style>
	</defs>
	<title>GreenSplat</title>

	<circle class="cls-1" cx="37.14" cy="37.14" r="36.89"/>

	<path id="green" class="cls-2" d="M243.12,68.55l-2.05-2.17c-.78-.82-1.44-.57-1.47.56l-.19,7.42a.85.85,0,0,1-1.7.09l-.81-6.09c-.24-1.78-1-1.87-1.63-.2L234.52,70a.85.85,0,0,1-1.64-.4l.35-3.41c.13-1.2-.51-1.53-1.41-.72l-5.49,4.93a.85.85,0,0,1-1.23-1.18l3.05-3.75c1.65-2,1.16-2.6-1.09-1.27h0A.86.86,0,0,1,226,62.9l2-2c1.09-1.12.73-1.76-.79-1.42l-3.38.73a.85.85,0,0,1-.52-1.62l4.82-2.08c1.07-.46,1-1.17,0-1.57l-6.73-2.53a.86.86,0,0,1,.47-1.64l6.8,1.43c1.55.33,1.9-.32.78-1.43l-3.28-3.26a.86.86,0,0,1,1.09-1.31l4.9,3.33c1,.66,1.56.26,1.31-.88l-2-9a.86.86,0,0,1,1.64-.47l2.39,6.61c.81,2.23,1.55,2.12,1.65-.25l.07-1.63a.86.86,0,0,1,1.7-.12l.87,4.65c.19,1,.87,1.18,1.5.36l2.37-3a.85.85,0,0,1,1.46.86l-1.67,3.91c-.33.77.08,1.3.91,1.17l7.35-1.12a.85.85,0,0,1,.38,1.66l-3.51,1.1c-2.16.68-2.08,1.43.17,1.66l1.69.17a.86.86,0,0,1,0,1.7l-2.13.34c-1.72.28-1.8,1-.17,1.64l6.36,2.41a.86.86,0,0,1-.49,1.64l-6.69-1.45c-1.6-.34-1.94.31-.77,1.44l3.9,3.79A.85.85,0,0,1,249.39,68l-4.32-2.9c-1.43-1-2-.47-1.24,1.08l.68,1.4A.85.85,0,0,1,243.12,68.55Z" transform="translate(-200.77 -19.75)"/>
	
</svg>