<svg id="OrangeSplat" xmlns="http://www.w3.org/2000/svg" viewBox="0 0 74.1 74.1">
	<defs>
		<style>.cls-1{fill:none;}.cls-1,.cls-2{stroke:#000;stroke-miterlimit:10;stroke-width:0.5px;}.cls-2{fill:#ffb996;}
		</style>
	</defs>
	<title>OrangeSplat</title>

	<ellipse class="cls-1" cx="62.75" cy="142.66" rx="11.76" ry="50.68" transform="translate(-108.2 -19.46) rotate(-45)"/>

	<path id="orange" class="cls-2" d="M59.67,165.23l-3.4,1.5a8.43,8.43,0,0,1-5.15.52L50,167a19.85,19.85,0,0,1-10.68-6.12c-1.91-2.14-2.06-3.34-2.24-6.35a10.69,10.69,0,0,1,2.72-10c2.79-2.88,6.43-6.37,8.88-7.88h0a3.82,3.82,0,0,1,5.77,3.81l-.34,2.37a.37.37,0,0,0,.05.27A5.92,5.92,0,0,0,59,146a.57.57,0,0,0,.18,0l8.15-3.48c4.71-2,6.68.09,4.36,4.66l-4.3,8.47s-1.85,3.2-3.28,5.65A9.76,9.76,0,0,1,59.67,165.23Zm6-29.82,1.5-1.69,2-2.57c1.1-1.38.58-2.23-1.15-1.87l-.59.12a3.56,3.56,0,0,1-3.88-1.85c-.47-.89-1-1.66-1.46-1.49h0a20.25,20.25,0,0,0-3.53,2.06,3.69,3.69,0,0,0-1.6,3.18,2.86,2.86,0,0,0,.31,2.27,6.93,6.93,0,0,0,3.22,2.83l.36.15a2.86,2.86,0,0,0,1.78.18l1.25-.28A3.31,3.31,0,0,0,65.63,135.41Zm20.43-13.5.51-1.21.63-1.79c.34-1-.11-1.34-1-.82,0,0-6,2.52-5.71,3.2a1.59,1.59,0,0,0,.6,1.19,3.94,3.94,0,0,0,2.31,1l.22,0a1.62,1.62,0,0,0,1-.24l.64-.39A1.87,1.87,0,0,0,86.06,121.91Zm-13.42-.55c.15-.38.36-.88.36-.88l.46-1.3c.24-.7-.08-1-.72-.59,0,0-4.32,1.82-4.13,2.32a1.22,1.22,0,0,0,.43.86,3,3,0,0,0,1.67.69h.17a1.25,1.25,0,0,0,.73-.17l.46-.28A1.46,1.46,0,0,0,72.64,121.36Zm6.87,22.14.42-.85.53-1.27c.28-.69,0-1-.68-.63,0,0-4.42,1.56-4.26,2.07a1.22,1.22,0,0,0,.38.89,2.93,2.93,0,0,0,1.63.78l.16,0a1.17,1.17,0,0,0,.74-.13l.48-.26A1.38,1.38,0,0,0,79.51,143.5Zm2.76-9.05.83-1.88,1.06-2.8c.57-1.51-.12-2.1-1.53-1.31,0,0-9.47,3.72-9.08,4.81a2.63,2.63,0,0,0,.9,1.9A6.3,6.3,0,0,0,78,136.74l.36,0a2.6,2.6,0,0,0,1.59-.34l1-.59A3.06,3.06,0,0,0,82.27,134.45Z" transform="translate(-25.7 -105.61)"/>
	
</svg>