<svg id="PurpSplat" xmlns="http://www.w3.org/2000/svg" viewBox="0 0 74.12 74.12">
	<defs>
		<style>.cls-1{fill:none;}.cls-1,.cls-2{stroke:#000;stroke-miterlimit:10;stroke-width:0.5px;}.cls-2{fill:#dc96ff;}</style>
	</defs>
	<title>PurpSplat</title>

	<rect class="cls-1" x="109.89" y="130.89" width="79.63" height="24.19" transform="translate(-169.9 41.81) rotate(-45)"/>

	<path id="purple" class="cls-2" d="M140.45,132.6l-2.72-.91a.88.88,0,0,0-1.15.65l-.15.64a1.08,1.08,0,0,1-2,.25l-.27-.55a1,1,0,0,0-1.34-.37l-1.66,1.06a.6.6,0,0,1-.89-.69l.41-1.24a1.52,1.52,0,0,0-1.12-2l-2.11-.48a.29.29,0,0,1-.07-.55l.36-.17a3.14,3.14,0,0,0,1.24-4.48l-.21-.33a.29.29,0,0,1,.34-.44l2.49.83A1.12,1.12,0,0,0,133,123l.56-2.54a.3.3,0,0,1,.57-.07l.61,1.21a2.23,2.23,0,0,0,3.2.89h0a.79.79,0,0,1,1.17.91l-.33.56a1.74,1.74,0,0,0,1.5,2.63h1.81a.3.3,0,0,1,.07.55l-3.29,1.16a1,1,0,0,0-.36,1.65l2.26,2.18A.3.3,0,0,1,140.45,132.6Zm15.15-14-.21,2.3a.73.73,0,0,1-1.11.56l-2.18-1.36a.21.21,0,0,0-.28.29l.83,1a1.28,1.28,0,0,1-.82,2.07l-.47.07a.58.58,0,0,0,0,1.09h0a1.65,1.65,0,0,1,1,2.25l-.42.91a.22.22,0,0,0,.3.29l1.72-.84a.81.81,0,0,1,1.13.45l.67,1.81a.22.22,0,0,0,.41,0l.1-.28a2.29,2.29,0,0,1,3.14-1.34l.26.12a.22.22,0,0,0,.29-.3l-.7-1.43a1.12,1.12,0,0,1,.62-1.55l.9-.34a.44.44,0,0,0,0-.83l-1.37-.47a.69.69,0,0,1-.4-.94l.18-.4a.79.79,0,0,0-1.07-1l-.44.21a.65.65,0,0,1-.9-.36l-.74-2A.22.22,0,0,0,155.6,118.57Zm14.17,42.58-6-5.75a2.61,2.61,0,0,1,.94-4.34l8.67-3.05a.78.78,0,0,0-.18-1.46h-4.78a4.59,4.59,0,0,1-4-6.93l.87-1.48a2.07,2.07,0,0,0-3.08-2.4h0a5.9,5.9,0,0,1-8.43-2.34l-1.61-3.21a.8.8,0,0,0-1.49.18l-1.5,6.7a2.93,2.93,0,0,1-3.79,2.15L138.9,137a.78.78,0,0,0-.9,1.16l.55.87a8.25,8.25,0,0,1-3.27,11.81l-.93.46a.78.78,0,0,0,.18,1.46l5.56,1.24a4,4,0,0,1,3,5.22L142,162.52a1.58,1.58,0,0,0,2.34,1.83l4.39-2.79a2.46,2.46,0,0,1,3.52,1l.72,1.44a2.86,2.86,0,0,0,5.34-.66l.38-1.69a2.34,2.34,0,0,1,3-1.71l7.18,2.39A.78.78,0,0,0,169.77,161.15Z" transform="translate(-112.64 -105.92)"/>
	
</svg>