<svg id="AllSplat" xmlns="http://www.w3.org/2000/svg" viewBox="0 0 74.19 76.05">
	<defs>
		<style>.cls-1{fill:#96dcff;}.cls-1,.cls-2,.cls-3,.cls-4,.cls-5{stroke:#000;stroke-miterlimit:10;stroke-width:0.5px;}.cls-2{fill:#dc96ff;}.cls-3{fill:#b9ff96;}.cls-4{fill:#ffb996;}.cls-5{fill:none;}
		</style>
	</defs>
	<title>SplatAll</title>

	<path id="blue" class="cls-1" d="M262.85,144.76l-2.72-.9a.88.88,0,0,0-1.15.65l-.14.64a1.09,1.09,0,0,1-2,.25l-.27-.55a.94.94,0,0,0-1.34-.37l-1.66,1.06a.6.6,0,0,1-.89-.7l.41-1.24a1.53,1.53,0,0,0-1.12-2l-2.11-.47a.29.29,0,0,1-.06-.55l.35-.18a3.13,3.13,0,0,0,1.24-4.47l-.21-.33a.29.29,0,0,1,.34-.44L254,136a1.11,1.11,0,0,0,1.44-.82l.57-2.54a.3.3,0,0,1,.56-.07l.61,1.22a2.24,2.24,0,0,0,3.2.89h0a.79.79,0,0,1,1.17.91l-.33.56a1.74,1.74,0,0,0,1.5,2.63h1.81a.29.29,0,0,1,.07.55l-3.29,1.16a1,1,0,0,0-.36,1.64l2.27,2.18A.3.3,0,0,1,262.85,144.76Z" transform="translate(-199.57 -104.2)"/>

	<path id="purple" class="cls-2" d="M246.5,120.14l.73,2a.66.66,0,0,0,.91.36l.43-.21a.8.8,0,0,1,1.08,1l-.19.41a.7.7,0,0,0,.4.94l1.38.47a.44.44,0,0,1,0,.83l-.9.33a1.14,1.14,0,0,0-.63,1.56l.71,1.43a.22.22,0,0,1-.29.29l-.26-.12a2.31,2.31,0,0,0-3.15,1.35l-.09.27a.22.22,0,0,1-.41,0l-.67-1.82a.83.83,0,0,0-1.13-.45l-1.73.85a.23.23,0,0,1-.3-.3l.42-.91a1.65,1.65,0,0,0-1-2.25h0a.58.58,0,0,1,0-1.09l.48-.07a1.28,1.28,0,0,0,.82-2.07l-.84-1a.22.22,0,0,1,.29-.3l2.18,1.36a.73.73,0,0,0,1.11-.55l.21-2.31A.22.22,0,0,1,246.5,120.14Z" transform="translate(-199.57 -104.2)"/>

	<path id="green" class="cls-3" d="M232.42,124.85l.43,1.14a.37.37,0,0,0,.52.21l.25-.12a.45.45,0,0,1,.61.6l-.1.24a.4.4,0,0,0,.23.54l.79.27a.25.25,0,0,1,0,.47l-.52.2a.64.64,0,0,0-.35.89l.4.82a.12.12,0,0,1-.16.17l-.16-.07a1.31,1.31,0,0,0-1.8.78l-.06.15a.12.12,0,0,1-.23,0l-.39-1a.47.47,0,0,0-.65-.27l-1,.49a.13.13,0,0,1-.17-.17l.24-.52a.94.94,0,0,0-.56-1.29h0a.33.33,0,0,1,0-.63l.27,0a.74.74,0,0,0,.47-1.19l-.48-.6a.13.13,0,0,1,.17-.17l1.25.78a.42.42,0,0,0,.64-.32l.12-1.33A.12.12,0,0,1,232.42,124.85Z" transform="translate(-199.57 -104.2)"/>

	<path id="orange" class="cls-4" d="M211.84,152.94l7.08-2.68a2.37,2.37,0,0,0,1.27-3.26l-.78-1.54a2.86,2.86,0,0,1,3.73-3.88l1.47.66a2.45,2.45,0,0,0,3.34-1.47l1.65-4.93a1.58,1.58,0,0,1,3-.06l1.22,3.22a4,4,0,0,0,5.59,2.19l5.09-2.55a.78.78,0,0,1,1.06,1l-.42.95A8.25,8.25,0,0,0,250,151.82l1,.32a.78.78,0,0,1,0,1.47l-6.47,2.45a2.94,2.94,0,0,0-1.59,4.06l3.07,6.14a.8.8,0,0,1-1,1.09l-3.27-1.48a5.9,5.9,0,0,0-8,3.52h0a2.08,2.08,0,0,1-3.91.07l-.25-1.69a4.61,4.61,0,0,0-7.45-2.88l-3.71,3a.78.78,0,0,1-1.06-1l4.79-7.84a2.61,2.61,0,0,0-2-4l-8.25-.68A.78.78,0,0,1,211.84,152.94Z" transform="translate(-199.57 -104.2)"/>

	<polygon class="cls-5" points="37.09 0.32 73.9 29.15 59.84 75.8 14.35 75.8 0.29 29.15 37.09 0.32"/>
	
</svg>