<svg id="ThreeSplat" xmlns="http://www.w3.org/2000/svg" viewBox="0 0 74.88 74.88">
	<defs>
		<style>.cls-1{fill:#96dcff;}.cls-1,.cls-2,.cls-3,.cls-4{stroke:#000;stroke-miterlimit:10;stroke-width:0.5px;}.cls-2{fill:#ffb996;}.cls-3{fill:#dc96ff;}.cls-4{fill:none;}</style>
	</defs>
	<title>ThreeSplat</title>

	<path id="blue" class="cls-1" d="M143.93,54.24l1.37-.4c.66-.19.69-.59.07-.88h0c-4.19-2-3.84-3.26.77-2.87h0c.67.05.83-.3.37-.78L145.26,48c-2.51-2.62-1.89-3.47,1.37-1.87h0c1.53.74,2.23.09,1.6-1.43h0c-1.41-3.39-.52-4,2-1.27l1.18,1.27c.45.49.81.35.8-.32v-.44c-.12-4.42,1.12-4.67,2.76-.57h0c.34.87.88.86,1.19,0l.32-.88c1.3-3.64,2.4-3.45,2.44.41v.93c0,.92.5,1.11,1.11.41l1-1.15c2.33-2.67,3.2-2.14,2,1.14l-.71,1.87c-.23.63.06.89.65.57l1.68-.88c3.16-1.67,3.8-.85,1.42,1.82h0c-1.15,1.28-.7,2.16,1,2h0c3.55-.4,3.85.59.67,2.22l-1.55.79c-.66.33-.61.76.11.95L168,54c3.4.88,3.32,1.9-.18,2.26h-.08c-1.71.18-2,1.13-.59,2.12h0c2.9,2.09,2.45,3-1,2.09L164.5,60c-.71-.19-1,.16-.56.78h0c2.47,3.79,1.51,4.69-2.13,2l-.1-.08c-.55-.4-.88-.19-.74.47h0c.95,4.51-.28,5-2.75,1.11l-.25-.38c-.22-.36-.47-.31-.54.11l-.28,1.73c-.63,3.84-1.76,3.86-2.51,0h0c-.27-1.36-1.06-1.49-1.76-.3l-.34.59c-1.8,3.07-2.75,2.72-2.12-.75l.35-2c.13-.7-.22-.91-.78-.47h0c-3.62,2.88-4.61,2-2.2-1.94l.39-.65c.15-.23,0-.36-.22-.28l-2.61.81c-3.39,1-3.86.14-1.07-2l1.58-1.22c.54-.41.42-.79-.25-.84l-1.42-.1C140.38,56.41,140.26,55.31,143.93,54.24Z" transform="translate(-112.11 -19.61)"/>

	<path id="orange" class="cls-2" d="M160.64,71.26l-1.11-.92c-.53-.43-.88-.23-.77.44v0c.73,4.57-.53,5-2.8,1h0c-.33-.58-.72-.53-.86.13l-.37,1.75c-.76,3.56-1.81,3.52-2.33-.08h0c-.24-1.68-1.17-1.89-2.07-.51h0c-2,3.07-3,2.65-2.17-.92l.39-1.7c.15-.65-.17-.86-.72-.47l-.35.25c-3.59,2.58-4.5,1.7-2-2h0c.52-.77.21-1.21-.69-1l-.91.24c-3.74,1-4.21,0-1-2.25l.76-.53c.76-.53.63-1-.28-1.15l-1.52-.18c-3.51-.42-3.57-1.44-.17-2.27l1.95-.47c.65-.16.7-.55.11-.86L142,58.93c-3.17-1.67-2.85-2.66.7-2.19h0c1.71.22,2.18-.64,1.07-1.93h0c-2.34-2.71-1.69-3.51,1.45-1.8l1.52.84c.65.35,1,.07.73-.63l-.62-1.73c-1.18-3.31-.29-3.82,2-1.13l0,.06c1.11,1.32,2,1,2.08-.7h0c.1-3.58,1.13-3.73,2.29-.35l.56,1.63c.24.71.68.72,1,0h0c1.75-4.17,3-3.89,2.85.64v.13c0,.68.33.83.8.34h0c3.2-3.33,4.32-2.59,2.48,1.65l-.19.42c-.17.39,0,.56.4.38l1.59-.74c3.53-1.64,4.18-.72,1.45,2h0c-1,1-.64,1.72.74,1.62l.68,0c3.55-.24,3.8.74.57,2.17l-1.82.82c-.65.29-.63.7,0,.91h0c4.42,1.38,4.25,2.69-.37,2.91l-.76,0c-.28,0-.33.16-.11.34l2.14,1.71c2.77,2.21,2.29,3.11-1.05,2l-1.9-.63c-.64-.21-.89.1-.55.68l.72,1.23C164.42,73,163.58,73.68,160.64,71.26Z" transform="translate(-112.11 -19.61)"/>

	<path id="purple" class="cls-3" d="M150.8,68.74,148,66.43c-.53-.44-.87-.24-.77.44l.81,5c.29,1.8-.21,2-1.11.39l-2.5-4.44c-.33-.58-.72-.52-.86.14l-.37,1.75c-.76,3.55-1.8,3.51-2.32-.08h0c-.24-1.69-1.17-1.89-2.08-.52L137.59,71c-1.35,2.06-2,1.78-1.45-.62l.88-3.83c.15-.66-.18-.87-.72-.48l-4.63,3.32c-1.24.89-1.55.59-.7-.67l2.95-4.36c.52-.77.21-1.2-.69-1l-.91.23c-3.74,1-4.2,0-1-2.25l.77-.53c.75-.52.62-1-.29-1.15l-1.52-.18c-3.51-.42-3.57-1.44-.16-2.26l1.94-.48c.65-.15.7-.54.11-.86l-5-2.64c-1.34-.71-1.2-1.13.3-.93l3.72.49c1.71.23,2.18-.64,1.07-1.93h0c-2.34-2.7-1.68-3.51,1.45-1.79l1.52.83c.66.36,1,.08.73-.63l-1.84-5.17c-.51-1.42-.13-1.64.84-.49l2.42,2.87c1.1,1.31,2,1,2.08-.71l0-1.61c.07-2.69.85-2.81,1.72-.26l1.09,3.16c.24.7.67.71,1,0l2.08-5c.6-1.44,1-1.34,1,.22l-.22,5.52c0,.68.34.83.81.34h0c3.2-3.33,4.31-2.59,2.47,1.65l-.18.42c-.17.39,0,.56.39.38l4.2-2c2.1-1,2.48-.43.86,1.22l-2.93,3c-.47.48-.31.83.36.79l2-.14c3.56-.24,3.8.74.58,2.18l-1.85.82c-.64.28-.62.69,0,.9l5.48,1.7c1.41.44,1.36.86-.12.94l-5.71.27c-.69,0-.82.42-.27.85l1.55,1.24c2.77,2.21,2.28,3.11-1.06,2l-1.9-.62c-.64-.21-.88.09-.54.67l1.82,3.14C153.39,69.91,152.81,70.4,150.8,68.74Z" transform="translate(-112.11 -19.61)"/>

	<rect class="cls-4" x="123.31" y="30.81" width="52.49" height="52.49" transform="translate(-111.16 96.92) rotate(-42.7)"/>
	
</svg>