<svg xmlns="http://www.w3.org/2000/svg" viewBox="0 0 255.25 165.25"><defs><style>.cls-1,.cls-10,.cls-11,.cls-14,.cls-2,.cls-3,.cls-4,.cls-8{fill:none;}.cls-1,.cls-10,.cls-11,.cls-12,.cls-13,.cls-2,.cls-3,.cls-4,.cls-7,.cls-8{stroke:#000;}.cls-1,.cls-10,.cls-11,.cls-12,.cls-13,.cls-14,.cls-2,.cls-3,.cls-4,.cls-7,.cls-8{stroke-miterlimit:10;}.cls-1,.cls-2,.cls-3{stroke-width:0.25px;}.cls-2{stroke-dasharray:11.57 11.57;}.cls-3{stroke-dasharray:11.77 11.77;}.cls-5{fill:#ffc578;}.cls-12,.cls-6{fill:#ff8178;}.cls-15,.cls-7{fill:#9ae1e6;}.cls-10,.cls-12,.cls-13,.cls-14,.cls-7,.cls-8{stroke-width:0.5px;}.cls-11,.cls-14,.cls-8{stroke-linecap:round;}.cls-9{fill:#78f6ff;}.cls-13{fill:#ffd7ea;}.cls-14{stroke:#ffc578;}</style></defs><title>music_icons</title><g id="Layer_8" data-name="Layer 8"><polyline class="cls-1" points="255.13 6.13 255.13 0.13 249.13 0.13"/><line class="cls-2" x1="237.55" y1="0.13" x2="11.91" y2="0.13"/><polyline class="cls-1" points="6.13 0.13 0.13 0.13 0.13 6.13"/><line class="cls-3" x1="0.13" y1="17.89" x2="0.13" y2="153.24"/><polyline class="cls-1" points="0.13 159.13 0.13 165.13 6.13 165.13"/><line class="cls-2" x1="17.7" y1="165.13" x2="243.34" y2="165.13"/><polyline class="cls-1" points="249.13 165.13 255.13 165.13 255.13 159.13"/><line class="cls-3" x1="255.13" y1="147.36" x2="255.13" y2="12.01"/></g><g id="Mic"><path id="stand" class="cls-4" d="M248.4,136v9.1a9.82,9.82,0,0,1-9.79,9.8h-1.47a9.83,9.83,0,0,1-9.8-9.8V136m0,0H248.4m-10.53,25.84v-6.77" transform="translate(-22.38 -15.38)"/><path id="orange" class="cls-5" d="M240.65,149.24V150a1.44,1.44,0,0,1-1.44,1.43h-2.68A1.43,1.43,0,0,1,235.1,150v-.74" transform="translate(-22.38 -15.38)"/><path id="orangeDark" class="cls-6" d="M229.73,146.06V125a8.17,8.17,0,0,1,8.14-8.14h0A8.16,8.16,0,0,1,246,125v21.06C246,150.54,229.73,150.54,229.73,146.06Z" transform="translate(-22.38 -15.38)"/><path id="blue" class="cls-7" d="M228.72,136a1.38,1.38,0,1,1-1.38-1.38A1.38,1.38,0,0,1,228.72,136Zm19.68-1.38a1.38,1.38,0,1,0,1.39,1.38A1.38,1.38,0,0,0,248.4,134.64Zm0,28.5a2.21,2.21,0,0,0-2.21-2.22H229.55a2.21,2.21,0,0,0-2.21,2.22H248.4Zm-3.05-2.22a2.21,2.21,0,0,0-2.21-2.21H232.93a2.21,2.21,0,0,0-2.22,2.21h14.64Z" transform="translate(-22.38 -15.38)"/><path id="outline" class="cls-8" d="M229.73,146.06V125a8.17,8.17,0,0,1,8.14-8.14h0A8.16,8.16,0,0,1,246,125v21.06C246,150.54,229.73,150.54,229.73,146.06Zm5.37,3.18V150a1.43,1.43,0,0,0,1.43,1.43h2.68a1.44,1.44,0,0,0,1.44-1.43v-.74m-10.92-23.68h2.58m-2.58,1.66h3.39m-3.39,1.36h2.58M229.73,141h2.58m-2.58,1.66h3.39M229.73,144h2.58M246,126h-3.45m3.45.93h-1.72M246,138h-3.45M246,139h-1.72" transform="translate(-22.38 -15.38)"/></g><g id="Keys"><rect id="blue-2" data-name="blue" class="cls-9" x="101.94" y="115.61" width="50.34" height="28.02" rx="7.3"/><rect id="keys-2" data-name="keys" class="cls-5" x="101.94" y="113.11" width="50.34" height="28.02" rx="7.3"/><path id="topKeys" class="cls-6" d="M133.49,143.23h-4V128.92a.43.43,0,0,1,.43-.43h3.53Zm14.38-14.74h-4v14.74h4Zm7.19,0h-3.95v14.74h3.95Zm7.2,0h-4v14.74h4Zm7.19.35a.36.36,0,0,0-.36-.35h-3.6v14.74h4Zm-28.77-.35h-4v14.74h4Z" transform="translate(-22.38 -15.38)"/><path id="outline-2" data-name="outline" class="cls-10" d="M174.66,138.28V151.7a7.32,7.32,0,0,1-7.3,7.3H131.62a7.32,7.32,0,0,1-7.3-7.3V138.28m16.36-9.79h-4v14.74h4Zm-7.19,14.74h-4v-14a.54.54,0,0,1,.53-.55l3.43-.17Zm14.38,0h-4V128.49h4Zm7.19,0h-3.95V128.49h3.95Zm7.2,0h-4V128.49h4Zm7.19,0h-4V128.49l3.6.2a.38.38,0,0,1,.36.38Zm-37.83,13.28-.11-13.28m7.19,0v13.28m7.19-13.28v13.28m7.2-13.28v13.28m7.19-13.28v13.28m7.19-13.28v13.28m-.11,0H131.62a7.32,7.32,0,0,1-7.3-7.3V135.79a7.32,7.32,0,0,1,7.3-7.3h35.74a7.32,7.32,0,0,1,7.3,7.3v13.42A7.32,7.32,0,0,1,167.36,156.51Z" transform="translate(-22.38 -15.38)"/></g><g id="Headphones"><path id="black" class="cls-11" d="M46.62,147.08c-.59,0-1.52-4.37-1.52-9m33.16,8.13c.89-1.11.89-4.1.89-8.13" transform="translate(-22.38 -15.38)"/><path id="halfMoons" class="cls-12" d="M54.23,163.14H53.06a9.47,9.47,0,0,1,0-18.91h1.28m16.31,18.91h1.17a9.47,9.47,0,0,0,0-18.91H70.54" transform="translate(-22.38 -15.38)"/><path id="bluAccent" class="cls-7" d="M54.23,163.14H53.06V144.23h1.28Zm17.7-18.91H70.66v18.91h1.16Z" transform="translate(-22.38 -15.38)"/><path id="Top" class="cls-7" d="M79.15,138.09a1.72,1.72,0,0,1-1.67-1.76c0-6.55-6.74-11.87-15-11.87H61.8c-8.28,0-15,5.32-15,11.87a1.67,1.67,0,1,1-3.34,0c0-8.48,8.24-15.38,18.37-15.38h.65c10.14,0,18.38,6.9,18.38,15.38A1.72,1.72,0,0,1,79.15,138.09Z" transform="translate(-22.38 -15.38)"/></g><g id="PlayPause"><path id="background" class="cls-13" d="M274.64,57.5h0a92.53,92.53,0,0,0-36.77,36.77h0A92.5,92.5,0,0,0,201.11,57.5h0a92.5,92.5,0,0,0,36.76-36.77h0A92.53,92.53,0,0,0,274.64,57.5Z" transform="translate(-22.38 -15.38)"/><rect id="line" class="cls-7" x="206.61" y="31.45" width="3.23" height="21.35"/><rect id="line-2" data-name="line" class="cls-7" x="211.7" y="31.45" width="3.23" height="21.35"/><polygon id="play" class="cls-7" points="217.09 52.8 217.09 31.45 232.24 42.13 217.09 52.8"/></g><g id="Note"><path class="cls-13" d="M186.77,57.5h0A92.53,92.53,0,0,0,150,94.27h0A92.53,92.53,0,0,0,113.23,57.5h0A92.53,92.53,0,0,0,150,20.73h0A92.53,92.53,0,0,0,186.77,57.5Z" transform="translate(-22.38 -15.38)"/><polygon id="top-2" data-name="top" class="cls-7" points="138.34 48.43 134.82 48.43 134.82 32.3 121.83 33.27 121.83 49.76 118.3 49.76 118.3 29.75 138.32 28.41 138.34 48.43"/><path id="round" class="cls-12" d="M144.21,65a4.73,4.73,0,1,1-4.72-4.72A4.73,4.73,0,0,1,144.21,65ZM156,59.08a4.73,4.73,0,1,0,4.73,4.72A4.73,4.73,0,0,0,156,59.08Z" transform="translate(-22.38 -15.38)"/><path id="spiral" class="cls-14" d="M140.1,68.06a3.63,3.63,0,0,1-4.42-2.63,2.92,2.92,0,0,1,2.1-3.55,2.35,2.35,0,0,1,2.84,1.69,1.87,1.87,0,0,1-1.35,2.27,1.49,1.49,0,0,1-1.81-1.08m16.72-.89A1.49,1.49,0,0,0,156,65a1.87,1.87,0,0,0,1.35-2.27A2.32,2.32,0,0,0,154.51,61a2.91,2.91,0,0,0-2.11,3.54,3.64,3.64,0,0,0,4.43,2.64" transform="translate(-22.38 -15.38)"/></g><g id="Speaker"><path class="cls-13" d="M98.89,57.5h0A92.5,92.5,0,0,0,62.13,94.27h0A92.53,92.53,0,0,0,25.36,57.5h0A92.53,92.53,0,0,0,62.13,20.73h0A92.5,92.5,0,0,0,98.89,57.5Z" transform="translate(-22.38 -15.38)"/><rect id="blue-3" data-name="blue" class="cls-9" x="29.9" y="26.2" width="20.45" height="31.85" rx="3.2"/><path id="darkline" class="cls-15" d="M45.92,26.2h.28a3.15,3.15,0,0,1,3.15,3.15V54.63a3.43,3.43,0,0,1-3.43,3.43h0a0,0,0,0,1,0,0V26.2A0,0,0,0,1,45.92,26.2Z"/><path id="outterSpeaker" class="cls-5" d="M66.93,50.45A4.43,4.43,0,1,1,62.5,46,4.43,4.43,0,0,1,66.93,50.45ZM62.5,56.36a6.79,6.79,0,1,0,6.79,6.79A6.79,6.79,0,0,0,62.5,56.36Z" transform="translate(-22.38 -15.38)"/><path id="innerSpeaker" class="cls-12" d="M64.73,50.45a2.23,2.23,0,1,1-2.23-2.24A2.23,2.23,0,0,1,64.73,50.45ZM62.5,59.12a4,4,0,1,0,4,4A4,4,0,0,0,62.5,59.12Z" transform="translate(-22.38 -15.38)"/><path id="outlines" class="cls-10" d="M69.52,73.43h-14a3.22,3.22,0,0,1-3.2-3.21V44.78a3.22,3.22,0,0,1,3.2-3.21h14a3.22,3.22,0,0,1,3.2,3.21V70.22A3.22,3.22,0,0,1,69.52,73.43ZM62.5,46a4.43,4.43,0,1,0,4.43,4.43A4.43,4.43,0,0,0,62.5,46Zm0,10.34a6.79,6.79,0,1,0,6.79,6.79A6.79,6.79,0,0,0,62.5,56.36ZM54.93,43.69a.74.74,0,0,0,0,1.47.74.74,0,0,0,0-1.47Zm14.89,0a.74.74,0,1,0,.74.73A.73.73,0,0,0,69.82,43.69Zm0,26.22a.74.74,0,1,0,.74.74A.74.74,0,0,0,69.82,69.91Zm-14.89.32a.74.74,0,1,0,.73.74A.73.73,0,0,0,54.93,70.23Z" transform="translate(-22.38 -15.38)"/></g></svg>