<svg id="SpaceShip" xmlns="http://www.w3.org/2000/svg" viewBox="0 0 75 75"><defs><style>.cls-1{fill:#e6d8ff;}.cls-2{fill:#95a0e6;}.cls-2,.cls-6{stroke:#000;stroke-width:0.5px;}.cls-2,.cls-3,.cls-6{stroke-miterlimit:10;}.cls-3,.cls-6{fill:none;}.cls-3{stroke:#c0d3ed;stroke-linecap:round;stroke-width:3px;}.cls-4{fill:#ddffd8;}.cls-5{fill:#a0e695;}</style></defs><title>SpaceShip</title><circle id="BackgroundCircle" class="cls-1" cx="37.5" cy="37.5" r="37.5"/><ellipse id="GlassDome" class="cls-2" cx="37.5" cy="37.5" rx="15.09" ry="16.1"/><path id="GlassStreak" class="cls-3" d="M146.23,46.21s-4.2.84-5.36,7.09" transform="translate(-112.5 -20)"/><path id="LightGreen" class="cls-4" d="M166.59,73.55H133.41a8,8,0,0,0-8-8v-1l7-7h35.28l7,7v1A8,8,0,0,0,166.59,73.55Z" transform="translate(-112.5 -20)"/><path id="DarkGreen" class="cls-5" d="M166.59,73.55H133.41a7.91,7.91,0,0,0-5-7.64c-.9-.41-3-.23-3-1,0,0,49.28-2.2,49.28-.51v1A8,8,0,0,0,166.59,73.55Z" transform="translate(-112.5 -20)"/><path id="OutlineShip" class="cls-6" d="M166.59,73.55H133.41a8,8,0,0,0-8-8v-1l7-7h35.28l7,7v1A8,8,0,0,0,166.59,73.55Z" transform="translate(-112.5 -20)"/><path id="ShipMidLine" class="cls-6" d="M125.36,65c16-.64,43.23-2,49.28-.51" transform="translate(-112.5 -20)"/></svg>