<svg xmlns="http://www.w3.org/2000/svg" viewBox="0 0 255.25 165.25">
	<defs>
		<style>.cls-1,.cls-11,.cls-12,.cls-14,.cls-2,.cls-3,.cls-5,.cls-9{fill:none;}.cls-1,.cls-11,.cls-12,.cls-13,.cls-2,.cls-3,.cls-4,.cls-5,.cls-8,.cls-9{stroke:#000;}.cls-1,.cls-11,.cls-12,.cls-13,.cls-14,.cls-2,.cls-3,.cls-4,.cls-5,.cls-8,.cls-9{stroke-miterlimit:10;}.cls-1,.cls-2,.cls-3{stroke-width:0.25px;}.cls-2{stroke-dasharray:11.57 11.57;}.cls-3{stroke-dasharray:11.77 11.77;}.cls-4{fill:#ffd7ea;}.cls-11,.cls-13,.cls-14,.cls-4,.cls-8,.cls-9{stroke-width:0.5px;}.cls-6{fill:#ffc578;}.cls-13,.cls-7{fill:#ff8178;}.cls-15,.cls-8{fill:#9ae1e6;}.cls-12,.cls-14,.cls-9{stroke-linecap:round;}.cls-10{fill:#78f6ff;}.cls-14{stroke:#ffc578;}</style>
	</defs>

	<title>All_music_icons</title>

		<g id="Mic">
			<path id="background" class="cls-4" d="M274.64,141h0a92.53,92.53,0,0,0-36.77,36.77h0A92.5,92.5,0,0,0,201.11,141h0a92.5,92.5,0,0,0,36.76-36.77h0A92.53,92.53,0,0,0,274.64,141Z" transform="translate(-22.38 -17.38)"/>
			<path id="stand" class="cls-5" d="M246.89,136.59v7.8a8.41,8.41,0,0,1-8.39,8.38h-1.26a8.4,8.4,0,0,1-8.38-8.38v-7.8m0,0h18m-9,22.12v-5.79" transform="translate(-22.38 -17.38)"/>
			<path id="orange" class="cls-6" d="M240.25,147.91v.63a1.24,1.24,0,0,1-1.23,1.23h-2.29a1.24,1.24,0,0,1-1.23-1.23v-.63" transform="translate(-22.38 -17.38)"/>
			<path id="orangeDark" class="cls-7" d="M230.91,145.19v-18a7,7,0,0,1,7-7h0a7,7,0,0,1,7,7v18C244.84,149,230.91,149,230.91,145.19Z" transform="translate(-22.38 -17.38)"/>
			<path id="blue" class="cls-8" d="M230,136.59a1.19,1.19,0,1,1-1.18-1.18A1.18,1.18,0,0,1,230,136.59Zm16.85-1.18a1.19,1.19,0,1,0,1.18,1.18A1.18,1.18,0,0,0,246.89,135.41Zm-1.9,22.5H230.75a1.89,1.89,0,0,0-1.89,1.89h18A1.9,1.9,0,0,0,245,157.91ZM242.38,156h-8.74a1.89,1.89,0,0,0-1.9,1.89h12.53A1.88,1.88,0,0,0,242.38,156Z" transform="translate(-22.38 -17.38)"/>
			<path id="outline" class="cls-9" d="M230.91,145.19v-18a7,7,0,0,1,7-7h0a7,7,0,0,1,7,7v18C244.84,149,230.91,149,230.91,145.19Zm4.59,2.72v.63a1.24,1.24,0,0,0,1.23,1.23H239a1.24,1.24,0,0,0,1.23-1.23v-.63m-9.34-20.27h2.2m-2.2,1.42h2.89m-2.89,1.17h2.2m-2.2,10.62h2.2m-2.2,1.42h2.89m-2.89,1.16h2.2M244.84,128h-3m3,.81h-1.48m1.48,9.5h-3m3,.8h-1.48" transform="translate(-22.38 -17.38)"/>
		</g>

		<g id="Keys">
			<path id="background-2" data-name="background" class="cls-4" d="M186.77,143.23h0A92.53,92.53,0,0,0,150,180h0a92.53,92.53,0,0,0-36.77-36.77h0A92.44,92.44,0,0,0,150,106.47h0a92.44,92.44,0,0,0,36.77,36.76Z" transform="translate(-22.38 -17.38)"/>
			<rect id="blue-2" data-name="blue" class="cls-10" x="108.33" y="116.07" width="38.6" height="21.48" rx="5.66"/>
			<rect id="keys-2" data-name="keys" class="cls-6" x="108.33" y="114.16" width="38.6" height="21.48" rx="7.3"/>
			<path id="topKeys" class="cls-7" d="M137.73,142.84h-3v-9.47a1.83,1.83,0,0,1,1.83-1.83h1.2Zm11-11.3h-3v11.3h3Zm5.51,0h-3v11.3h3Zm5.52,0h-3v11.3h3Zm4.15,0h-1.67v11.3h3V132.9A1.36,1.36,0,0,0,163.94,131.54Zm-20.69,0h-3v11.3h3Z" transform="translate(-22.38 -17.38)"/>
			<path id="outline-2" data-name="outline" class="cls-11" d="M169.3,139v10.3a5.61,5.61,0,0,1-5.6,5.59H136.3a5.61,5.61,0,0,1-5.6-5.59V139m12.55-7.5h-3v11.3h3Zm-5.52,11.3h-3v-9.13a2.11,2.11,0,0,1,2-2.12l1-.05Zm11,0h-3v-11.3h3Zm5.51,0h-3v-11.3h3Zm5.52,0h-3v-11.3h3Zm5.51,0h-3v-11.3l1.72.09A1.39,1.39,0,0,1,165.3,133ZM136.3,153l-.08-10.18m5.51,0V153m5.51-10.18V153m5.52-10.18V153m5.51-10.18V153m5.51-10.18V153M162,153H138a7.32,7.32,0,0,1-7.3-7.3v-6.89a7.32,7.32,0,0,1,7.3-7.29h24a7.32,7.32,0,0,1,7.3,7.29v6.89A7.32,7.32,0,0,1,162,153Z" transform="translate(-22.38 -17.38)"/>
		</g>

		<g id="Headphones">
			<path id="background-3" data-name="background" class="cls-4" d="M99.27,141.58h0A92.53,92.53,0,0,0,62.5,178.35h0a92.53,92.53,0,0,0-36.77-36.77h0A92.44,92.44,0,0,0,62.5,104.82h0a92.44,92.44,0,0,0,36.77,36.76Z" transform="translate(-22.38 -17.38)"/>
			<path id="black" class="cls-12" d="M50.64,145.77c-.44,0-1.12-3.24-1.12-6.66m24.56,6c.66-.82.66-3,.66-6" transform="translate(-22.38 -17.38)"/>
			<path id="halfMoons" class="cls-13" d="M56.28,157.67h-.87a7,7,0,0,1,0-14h1m12.08,14h.86a7,7,0,0,0,0-14h-.94" transform="translate(-22.38 -17.38)"/>
			<path id="bluAccent" class="cls-8" d="M56.28,157.67h-.87v-14h1Zm13.11-14h-1v14h.87Z" transform="translate(-22.38 -17.38)"/>
			<path id="Top" class="cls-8" d="M74.74,139.11a1.27,1.27,0,0,1-1.24-1.3c0-4.85-5-8.79-11.13-8.79h-.48c-6.14,0-11.13,3.94-11.13,8.79a1.24,1.24,0,1,1-2.48,0c0-6.28,6.1-11.39,13.61-11.39h.48c7.5,0,13.61,5.11,13.61,11.39A1.27,1.27,0,0,1,74.74,139.11Z" transform="translate(-22.38 -17.38)"/>
		</g>

		<g id="PlayPause">
			<path id="background-4" data-name="background" class="cls-4" d="M274.64,57.5h0a92.53,92.53,0,0,0-36.77,36.77h0A92.5,92.5,0,0,0,201.11,57.5h0a92.5,92.5,0,0,0,36.76-36.77h0A92.53,92.53,0,0,0,274.64,57.5Z" transform="translate(-22.38 -17.38)"/>
			<rect id="line" class="cls-8" x="206.61" y="29.45" width="3.23" height="21.35"/>
			<rect id="line-2" data-name="line" class="cls-8" x="211.7" y="29.45" width="3.23" height="21.35"/>
			<polygon id="play" class="cls-8" points="217.09 50.8 217.09 29.45 232.24 40.13 217.09 50.8"/>
		</g>

		<g id="Note">
			<path class="cls-4" d="M186.77,57.5h0A92.53,92.53,0,0,0,150,94.27h0A92.53,92.53,0,0,0,113.23,57.5h0A92.53,92.53,0,0,0,150,20.73h0A92.53,92.53,0,0,0,186.77,57.5Z" transform="translate(-22.38 -17.38)"/>
			<polygon id="top-2" data-name="top" class="cls-8" points="138.34 46.43 134.82 46.43 134.82 30.3 121.83 31.27 121.83 47.76 118.3 47.76 118.3 27.75 138.32 26.41 138.34 46.43"/>
			<path id="round" class="cls-13" d="M144.21,65a4.73,4.73,0,1,1-4.72-4.72A4.73,4.73,0,0,1,144.21,65ZM156,59.08a4.73,4.73,0,1,0,4.73,4.72A4.73,4.73,0,0,0,156,59.08Z" transform="translate(-22.38 -17.38)"/>
			<path id="spiral" class="cls-14" d="M140.1,68.06a3.63,3.63,0,0,1-4.42-2.63,2.92,2.92,0,0,1,2.1-3.55,2.35,2.35,0,0,1,2.84,1.69,1.87,1.87,0,0,1-1.35,2.27,1.49,1.49,0,0,1-1.81-1.08m16.72-.89A1.49,1.49,0,0,0,156,65a1.87,1.87,0,0,0,1.35-2.27A2.32,2.32,0,0,0,154.51,61a2.91,2.91,0,0,0-2.11,3.54,3.64,3.64,0,0,0,4.43,2.64" transform="translate(-22.38 -17.38)"/>
		</g>

		<g id="Speaker">
			<path class="cls-4" d="M98.89,57.5h0A92.5,92.5,0,0,0,62.13,94.27h0A92.53,92.53,0,0,0,25.36,57.5h0A92.53,92.53,0,0,0,62.13,20.73h0A92.5,92.5,0,0,0,98.89,57.5Z" transform="translate(-22.38 -17.38)"/>
			<rect id="blue-3" data-name="blue" class="cls-10" x="29.9" y="24.2" width="20.45" height="31.85" rx="3.2"/>
			<path id="darkline" class="cls-15" d="M45.92,24.2h.28a3.15,3.15,0,0,1,3.15,3.15V52.63a3.43,3.43,0,0,1-3.43,3.43h0a0,0,0,0,1,0,0V24.2A0,0,0,0,1,45.92,24.2Z"/>
			<path id="outterSpeaker" class="cls-6" d="M66.93,50.45A4.43,4.43,0,1,1,62.5,46,4.43,4.43,0,0,1,66.93,50.45ZM62.5,56.36a6.79,6.79,0,1,0,6.79,6.79A6.79,6.79,0,0,0,62.5,56.36Z" transform="translate(-22.38 -17.38)"/>
			<path id="innerSpeaker" class="cls-13" d="M64.73,50.45a2.23,2.23,0,1,1-2.23-2.24A2.23,2.23,0,0,1,64.73,50.45ZM62.5,59.12a4,4,0,1,0,4,4A4,4,0,0,0,62.5,59.12Z" transform="translate(-22.38 -17.38)"/>
			<path id="outlines" class="cls-11" d="M69.52,73.43h-14a3.22,3.22,0,0,1-3.2-3.21V44.78a3.22,3.22,0,0,1,3.2-3.21h14a3.22,3.22,0,0,1,3.2,3.21V70.22A3.22,3.22,0,0,1,69.52,73.43ZM62.5,46a4.43,4.43,0,1,0,4.43,4.43A4.43,4.43,0,0,0,62.5,46Zm0,10.34a6.79,6.79,0,1,0,6.79,6.79A6.79,6.79,0,0,0,62.5,56.36ZM54.93,43.69a.74.74,0,0,0,0,1.47.74.74,0,0,0,0-1.47Zm14.89,0a.74.74,0,1,0,.74.73A.73.73,0,0,0,69.82,43.69Zm0,26.22a.74.74,0,1,0,.74.74A.74.74,0,0,0,69.82,69.91Zm-14.89.32a.74.74,0,1,0,.73.74A.73.73,0,0,0,54.93,70.23Z" transform="translate(-22.38 -17.38)"/>
		</g>

	</svg>