<svg id="Headphones" xmlns="http://www.w3.org/2000/svg" viewBox="0 0 74.57 74.57"><defs><style>.cls-1{fill:#ffd7ea;}.cls-1,.cls-2,.cls-3,.cls-4{stroke:#000;stroke-miterlimit:10;}.cls-1,.cls-3,.cls-4{stroke-width:0.5px;}.cls-2{fill:none;stroke-linecap:round;}.cls-3{fill:#ff8178;}.cls-4{fill:#9ae1e6;}</style></defs><title>Headphones</title><path id="background" class="cls-1" d="M99.27,142.58h0A92.53,92.53,0,0,0,62.5,179.35h0a92.53,92.53,0,0,0-36.77-36.77h0A92.44,92.44,0,0,0,62.5,105.82h0a92.44,92.44,0,0,0,36.77,36.76Z" transform="translate(-25.21 -105.3)"/><path id="black" class="cls-2" d="M50.64,145.77c-.44,0-1.12-3.24-1.12-6.66m24.56,6c.66-.82.66-3,.66-6" transform="translate(-25.21 -105.3)"/><path id="halfMoons" class="cls-3" d="M56.28,157.67h-.87a7,7,0,0,1,0-14h1m12.08,14h.86a7,7,0,0,0,0-14h-.94" transform="translate(-25.21 -105.3)"/><path id="bluAccent" class="cls-4" d="M56.28,157.67h-.87v-14h1Zm13.11-14h-1v14h.87Z" transform="translate(-25.21 -105.3)"/><path id="Top" class="cls-4" d="M74.74,139.11a1.27,1.27,0,0,1-1.24-1.3c0-4.85-5-8.79-11.13-8.79h-.48c-6.14,0-11.13,3.94-11.13,8.79a1.24,1.24,0,1,1-2.48,0c0-6.28,6.1-11.39,13.61-11.39h.48c7.5,0,13.61,5.11,13.61,11.39A1.27,1.27,0,0,1,74.74,139.11Z" transform="translate(-25.21 -105.3)"/></svg>