<svg id="Keys" xmlns="http://www.w3.org/2000/svg" viewBox="0 0 74.57 74.57"><defs><style>.cls-1{fill:#ffd7ea;}.cls-1,.cls-5{stroke:#000;stroke-miterlimit:10;stroke-width:0.5px;}.cls-2{fill:#78f6ff;}.cls-3{fill:#ffc578;}.cls-4{fill:#ff8178;}.cls-5{fill:none;}</style></defs><title>Keys</title><path id="background" class="cls-1" d="M186.77,143.23h0A92.53,92.53,0,0,0,150,180h0a92.53,92.53,0,0,0-36.77-36.77h0A92.44,92.44,0,0,0,150,106.47h0a92.44,92.44,0,0,0,36.77,36.76Z" transform="translate(-112.71 -105.95)"/><rect id="blue" class="cls-2" x="17.99" y="27.5" width="38.6" height="21.48" rx="5.66"/><rect id="keys-2" data-name="keys" class="cls-3" x="17.99" y="25.59" width="38.6" height="21.48" rx="7.3"/><path id="topKeys" class="cls-4" d="M137.73,142.84h-3v-9.47a1.83,1.83,0,0,1,1.83-1.83h1.2Zm11-11.3h-3v11.3h3Zm5.51,0h-3v11.3h3Zm5.52,0h-3v11.3h3Zm4.15,0h-1.67v11.3h3V132.9A1.36,1.36,0,0,0,163.94,131.54Zm-20.69,0h-3v11.3h3Z" transform="translate(-112.71 -105.95)"/><path id="outline" class="cls-5" d="M169.3,139v10.3a5.61,5.61,0,0,1-5.6,5.59H136.3a5.61,5.61,0,0,1-5.6-5.59V139m12.55-7.5h-3v11.3h3Zm-5.52,11.3h-3v-9.13a2.11,2.11,0,0,1,2-2.12l1-.05Zm11,0h-3v-11.3h3Zm5.51,0h-3v-11.3h3Zm5.52,0h-3v-11.3h3Zm5.51,0h-3v-11.3l1.72.09A1.39,1.39,0,0,1,165.3,133ZM136.3,153l-.08-10.18m5.51,0V153m5.51-10.18V153m5.52-10.18V153m5.51-10.18V153m5.51-10.18V153M162,153H138a7.32,7.32,0,0,1-7.3-7.3v-6.89a7.32,7.32,0,0,1,7.3-7.29h24a7.32,7.32,0,0,1,7.3,7.29v6.89A7.32,7.32,0,0,1,162,153Z" transform="translate(-112.71 -105.95)"/></svg>