<svg id="Mic" xmlns="http://www.w3.org/2000/svg" viewBox="0 0 74.57 74.57"><defs><style>.cls-1{fill:#ffd7ea;}.cls-1,.cls-2,.cls-5,.cls-6{stroke:#000;stroke-miterlimit:10;}.cls-1,.cls-5,.cls-6{stroke-width:0.5px;}.cls-2,.cls-6{fill:none;}.cls-3{fill:#ffc578;}.cls-4{fill:#ff8178;}.cls-5{fill:#9ae1e6;}.cls-6{stroke-linecap:round;}</style></defs><title>Mic</title><path id="background" class="cls-1" d="M274.64,141h0a92.53,92.53,0,0,0-36.77,36.77h0A92.5,92.5,0,0,0,201.11,141h0a92.5,92.5,0,0,0,36.76-36.77h0A92.53,92.53,0,0,0,274.64,141Z" transform="translate(-200.59 -103.7)"/><path id="stand" class="cls-2" d="M246.89,136.59v7.8a8.41,8.41,0,0,1-8.39,8.38h-1.26a8.4,8.4,0,0,1-8.38-8.38v-7.8m0,0h18m-9,22.12v-5.79" transform="translate(-200.59 -103.7)"/><path id="orange" class="cls-3" d="M240.25,147.91v.63a1.24,1.24,0,0,1-1.23,1.23h-2.29a1.24,1.24,0,0,1-1.23-1.23v-.63" transform="translate(-200.59 -103.7)"/><path id="orangeDark" class="cls-4" d="M230.91,145.19v-18a7,7,0,0,1,7-7h0a7,7,0,0,1,7,7v18C244.84,149,230.91,149,230.91,145.19Z" transform="translate(-200.59 -103.7)"/><path id="blue" class="cls-5" d="M230,136.59a1.19,1.19,0,1,1-1.18-1.18A1.18,1.18,0,0,1,230,136.59Zm16.85-1.18a1.19,1.19,0,1,0,1.18,1.18A1.18,1.18,0,0,0,246.89,135.41Zm-1.9,22.5H230.75a1.89,1.89,0,0,0-1.89,1.89h18A1.9,1.9,0,0,0,245,157.91ZM242.38,156h-8.74a1.89,1.89,0,0,0-1.9,1.89h12.53A1.88,1.88,0,0,0,242.38,156Z" transform="translate(-200.59 -103.7)"/><path id="outline" class="cls-6" d="M230.91,145.19v-18a7,7,0,0,1,7-7h0a7,7,0,0,1,7,7v18C244.84,149,230.91,149,230.91,145.19Zm4.59,2.72v.63a1.24,1.24,0,0,0,1.23,1.23H239a1.24,1.24,0,0,0,1.23-1.23v-.63m-9.34-20.27h2.2m-2.2,1.42h2.89m-2.89,1.17h2.2m-2.2,10.62h2.2m-2.2,1.42h2.89m-2.89,1.16h2.2M244.84,128h-3m3,.81h-1.48m1.48,9.5h-3m3,.8h-1.48" transform="translate(-200.59 -103.7)"/></svg>