<svg id="Note" xmlns="http://www.w3.org/2000/svg" viewBox="0 0 74.57 74.57"><defs><style>.cls-1{fill:#ffd7ea;}.cls-1,.cls-2,.cls-3{stroke:#000;}.cls-1,.cls-2,.cls-3,.cls-4{stroke-miterlimit:10;stroke-width:0.5px;}.cls-2{fill:#9ae1e6;}.cls-3{fill:#ff8178;}.cls-4{fill:none;stroke:#ffc578;stroke-linecap:round;}</style></defs><title>Note</title><path class="cls-1" d="M186.77,57.5h0A92.53,92.53,0,0,0,150,94.27h0A92.53,92.53,0,0,0,113.23,57.5h0A92.53,92.53,0,0,0,150,20.73h0A92.53,92.53,0,0,0,186.77,57.5Z" transform="translate(-112.71 -20.21)"/><polygon id="top" class="cls-2" points="48.01 43.59 44.48 43.59 44.48 27.46 31.49 28.43 31.49 44.92 27.96 44.92 27.96 24.91 47.98 23.57 48.01 43.59"/><path id="round" class="cls-3" d="M144.21,65a4.73,4.73,0,1,1-4.72-4.72A4.73,4.73,0,0,1,144.21,65ZM156,59.08a4.73,4.73,0,1,0,4.73,4.72A4.73,4.73,0,0,0,156,59.08Z" transform="translate(-112.71 -20.21)"/><path id="spiral" class="cls-4" d="M140.1,68.06a3.63,3.63,0,0,1-4.42-2.63,2.92,2.92,0,0,1,2.1-3.55,2.35,2.35,0,0,1,2.84,1.69,1.87,1.87,0,0,1-1.35,2.27,1.49,1.49,0,0,1-1.81-1.08m16.72-.89A1.49,1.49,0,0,0,156,65a1.87,1.87,0,0,0,1.35-2.27A2.32,2.32,0,0,0,154.51,61a2.91,2.91,0,0,0-2.11,3.54,3.64,3.64,0,0,0,4.43,2.64" transform="translate(-112.71 -20.21)"/></svg>