<svg id="Speaker" xmlns="http://www.w3.org/2000/svg" viewBox="0 0 74.57 74.57"><defs><style>.cls-1{fill:#ffd7ea;}.cls-1,.cls-5,.cls-6{stroke:#000;stroke-miterlimit:10;stroke-width:0.5px;}.cls-2{fill:#78f6ff;}.cls-3{fill:#9ae1e6;}.cls-4{fill:#ffc578;}.cls-5{fill:#ff8178;}.cls-6{fill:none;}</style></defs><title>Speaker</title><path class="cls-1" d="M98.89,57.5h0A92.5,92.5,0,0,0,62.13,94.27h0A92.53,92.53,0,0,0,25.36,57.5h0A92.53,92.53,0,0,0,62.13,20.73h0A92.5,92.5,0,0,0,98.89,57.5Z" transform="translate(-24.84 -20.21)"/><rect id="blue" class="cls-2" x="27.44" y="21.36" width="20.45" height="31.85" rx="3.2"/><path id="darkline" class="cls-3" d="M43.46,21.36h.28a3.15,3.15,0,0,1,3.15,3.15V49.79a3.43,3.43,0,0,1-3.43,3.43h0a0,0,0,0,1,0,0V21.36A0,0,0,0,1,43.46,21.36Z"/><path id="outterSpeaker" class="cls-4" d="M66.93,50.45A4.43,4.43,0,1,1,62.5,46,4.43,4.43,0,0,1,66.93,50.45ZM62.5,56.36a6.79,6.79,0,1,0,6.79,6.79A6.79,6.79,0,0,0,62.5,56.36Z" transform="translate(-24.84 -20.21)"/><path id="innerSpeaker" class="cls-5" d="M64.73,50.45a2.23,2.23,0,1,1-2.23-2.24A2.23,2.23,0,0,1,64.73,50.45ZM62.5,59.12a4,4,0,1,0,4,4A4,4,0,0,0,62.5,59.12Z" transform="translate(-24.84 -20.21)"/><path id="outlines" class="cls-6" d="M69.52,73.43h-14a3.22,3.22,0,0,1-3.2-3.21V44.78a3.22,3.22,0,0,1,3.2-3.21h14a3.22,3.22,0,0,1,3.2,3.21V70.22A3.22,3.22,0,0,1,69.52,73.43ZM62.5,46a4.43,4.43,0,1,0,4.43,4.43A4.43,4.43,0,0,0,62.5,46Zm0,10.34a6.79,6.79,0,1,0,6.79,6.79A6.79,6.79,0,0,0,62.5,56.36ZM54.93,43.69a.74.74,0,0,0,0,1.47.74.74,0,0,0,0-1.47Zm14.89,0a.74.74,0,1,0,.74.73A.73.73,0,0,0,69.82,43.69Zm0,26.22a.74.74,0,1,0,.74.74A.74.74,0,0,0,69.82,69.91Zm-14.89.32a.74.74,0,1,0,.73.74A.73.73,0,0,0,54.93,70.23Z" transform="translate(-24.84 -20.21)"/></svg>